<?xml version="1.0" encoding="UTF-8"?>
<svg version="1.1" viewBox="0 0 193.38 32" xmlns="http://www.w3.org/2000/svg">
    <title>decomp.me logotype</title>
    <style>
        .text {
            fill: rgb(77, 84, 91);
            stroke: rgb(77, 84, 91);
        }

        @media (prefers-color-scheme: dark) {
            .text {
                fill: rgb(206, 212, 218);
                stroke: rgb(206, 212, 218);
            }
        }
    </style>
    <path d="m36 20c0 7.456-8.059 12-18 12s-18-4.544-18-12 8.059-15 18-15 18 7.544 18 15z" fill="#cc87f4"/>
    <path d="m31.755 10.676c1.368-1.1 2.245-2.785 2.245-4.676 0-3.313-2.687-6-6-6-2.861 0-5.25 2.004-5.851 4.685-1.288-0.483-2.683-0.758-4.149-0.758-1.465 0-2.861 0.275-4.149 0.758-0.601-2.681-2.99-4.685-5.851-4.685-3.313 0-6 2.687-6 6 0 1.891 0.877 3.576 2.245 4.676-2.645 2.68-4.245 6.009-4.245 9.324 0 7.456 8.059 1 18 1s18 6.456 18-1c0-3.315-1.6-6.644-4.245-9.324z" fill="#951fd9"/>
    <circle class="eyeL" cx="7.5" cy="5.5" r="3.5" fill="#fff"/>
    <circle class="pupilL" cx="7.5" cy="5.5" r="1.5" fill="#292f33"/>
    <circle class="eyeR" cx="28.5" cy="5.5" r="3.5" fill="#fff"/>
    <g transform="translate(0,-2)">
        <circle class="pupilR" cx="28.5" cy="7.5" r="1.5" fill="#292f33"/>
        <circle cx="14" cy="20" r="1" fill="#561e77"/>
        <circle cx="22" cy="20" r="1" fill="#561e77"/>
    </g>
    <g transform="translate(2 .99963)" class="text" stroke-width=".59147" aria-label="decomp.me">
        <path d="m57.185 23.569h-3.168v-2.0533h-0.05867q-0.67467 1.32-1.9653 1.9067-1.2907 0.55733-2.728 0.55733-1.7893 0-3.1387-0.616-1.32-0.64533-2.2-1.7307t-1.32-2.552q-0.44-1.496-0.44-3.1973 0-2.0533 0.55733-3.5493 0.55733-1.496 1.4667-2.464 0.93867-0.968 2.112-1.408 1.2027-0.46933 2.4347-0.46933 0.704 0 1.4373 0.14667 0.73333 0.11733 1.408 0.41067 0.67467 0.29333 1.232 0.76267 0.58667 0.44 0.968 1.056h0.05867v-7.744h3.344zm-11.675-7.4213q0 0.968 0.23467 1.9067 0.264 0.93867 0.76267 1.672 0.528 0.73333 1.32 1.1733 0.792 0.44 1.8773 0.44 1.1147 0 1.9067-0.46933 0.82133-0.46933 1.32-1.232 0.528-0.76266 0.76266-1.7013 0.264-0.968 0.264-1.9653 0-2.5227-1.144-3.9307-1.1147-1.408-3.0507-1.408-1.1733 0-1.9947 0.49867-0.792 0.46933-1.32 1.2613-0.49867 0.76267-0.73333 1.76-0.20533 0.968-0.20533 1.9947z"/>
        <path d="m69.936 14.652q-0.05867-0.792-0.352-1.5253-0.264-0.73333-0.76267-1.2613-0.46933-0.55733-1.1733-0.88-0.67467-0.352-1.5253-0.352-0.88 0-1.6133 0.32267-0.704 0.29333-1.232 0.85066-0.49867 0.528-0.82133 1.2613-0.29333 0.73333-0.32267 1.584zm-7.8027 2.2q0 0.88 0.23467 1.7013 0.264 0.82133 0.76267 1.4373t1.2613 0.99733q0.76267 0.352 1.8187 0.352 1.4667 0 2.3467-0.616 0.90933-0.64533 1.3493-1.9067h3.168q-0.264 1.232-0.90933 2.2-0.64533 0.968-1.5547 1.6427-0.90933 0.64533-2.0533 0.968-1.1147 0.352-2.3467 0.352-1.7893 0-3.168-0.58667t-2.3467-1.6427q-0.93867-1.056-1.4373-2.5227-0.46933-1.4667-0.46933-3.2267 0-1.6133 0.49867-3.0507 0.528-1.4667 1.4667-2.552 0.968-1.1147 2.3173-1.76 1.3493-0.64533 3.0507-0.64533 1.7893 0 3.1973 0.76267 1.4373 0.73333 2.376 1.9653 0.93867 1.232 1.3493 2.8453 0.44 1.584 0.23467 3.2853z"/>
        <path d="m84.769 13.479q-0.20533-1.408-1.144-2.112-0.90933-0.73333-2.3173-0.73333-0.64533 0-1.3787 0.23467-0.73333 0.20533-1.3493 0.82133-0.616 0.58667-1.0267 1.672-0.41067 1.056-0.41067 2.7867 0 0.93866 0.20533 1.8773 0.23467 0.93867 0.704 1.672 0.49867 0.73333 1.2613 1.2027 0.76267 0.44 1.848 0.44 1.4667 0 2.4053-0.90933 0.968-0.90933 1.2027-2.552h3.344q-0.46933 2.9627-2.2587 4.5467-1.76 1.5547-4.6933 1.5547-1.7893 0-3.168-0.58667-1.3493-0.616-2.288-1.6427-0.93867-1.056-1.4373-2.4933-0.46933-1.4373-0.46933-3.1093 0-1.7013 0.46933-3.1973 0.46933-1.496 1.408-2.5813 0.93866-1.1147 2.3173-1.7307 1.408-0.64533 3.2853-0.64533 1.32 0 2.4933 0.352 1.2027 0.32267 2.112 0.99733 0.93867 0.67467 1.5253 1.7013 0.58667 1.0267 0.704 2.4347z"/>
        <path d="m96.493 23.98q-1.8187 0-3.256-0.58667-1.408-0.616-2.4053-1.672-0.968-1.056-1.496-2.5227-0.49867-1.4667-0.49867-3.2267 0-1.7307 0.49867-3.1973 0.528-1.4667 1.496-2.5227 0.99733-1.056 2.4053-1.6427 1.4373-0.616 3.256-0.616t3.2267 0.616q1.4373 0.58667 2.4053 1.6427 0.99733 1.056 1.496 2.5227 0.528 1.4667 0.528 3.1973 0 1.76-0.528 3.2267-0.49867 1.4667-1.496 2.5227-0.968 1.056-2.4053 1.672-1.408 0.58667-3.2267 0.58667zm0-2.64q1.1147 0 1.936-0.46933 0.82133-0.46933 1.3493-1.232 0.528-0.76266 0.76267-1.7013 0.264-0.968 0.264-1.9653 0-0.968-0.264-1.936-0.23467-0.968-0.76267-1.7013-0.528-0.76267-1.3493-1.232-0.82133-0.46933-1.936-0.46933t-1.936 0.46933q-0.82133 0.46933-1.3493 1.232-0.528 0.73333-0.792 1.7013-0.23467 0.968-0.23467 1.936 0 0.99733 0.23467 1.9653 0.264 0.93867 0.792 1.7013 0.528 0.76267 1.3493 1.232 0.82133 0.46933 1.936 0.46933z"/>
        <path d="m105.64 8.404h3.168v2.112h0.088q0.38134-0.55733 0.82134-1.0267 0.43999-0.46933 0.96799-0.792 0.55734-0.32267 1.2613-0.49867 0.704-0.20533 1.6133-0.20533 1.3787 0 2.552 0.616 1.2027 0.616 1.7013 1.9067 0.85066-1.1733 1.9653-1.848 1.1147-0.67467 2.7867-0.67467 2.4053 0 3.7253 1.1733 1.3493 1.1733 1.3493 3.9307v10.472h-3.344v-8.8587q0-0.90933-0.0587-1.6427-0.0587-0.76266-0.352-1.2907-0.264-0.55733-0.82133-0.85067-0.55734-0.29333-1.5253-0.29333-1.7013 0-2.464 1.056-0.76267 1.056-0.76267 2.992v8.888h-3.344v-9.7387q0-1.584-0.58667-2.376-0.55733-0.82133-2.0827-0.82133-0.64534 0-1.2613 0.264-0.58666 0.264-1.056 0.76267-0.43999 0.49867-0.73333 1.232-0.264 0.73333-0.264 1.672v9.0053h-3.344z"/>
        <path d="m129.94 8.404h3.168v2.0533h0.0587q0.704-1.32 1.9653-1.8773 1.2613-0.58667 2.728-0.58667 1.7893 0 3.1093 0.64533 1.3493 0.616 2.2293 1.7307 0.88 1.0853 1.32 2.552t0.44 3.1387q0 1.5253-0.41067 2.9627-0.38133 1.4373-1.2027 2.552-0.79199 1.0853-2.024 1.76-1.232 0.64533-2.904 0.64533-0.73333 0-1.4667-0.14667-0.73334-0.11733-1.408-0.41067-0.67467-0.29333-1.2613-0.73333-0.55733-0.46933-0.93866-1.0853h-0.0587v7.568h-3.344zm11.675 7.5973q0-1.0267-0.264-1.9947t-0.792-1.7013q-0.528-0.76267-1.32-1.2027-0.792-0.46933-1.8187-0.46933-2.112 0-3.1973 1.4667-1.056 1.4667-1.056 3.9013 0 1.144 0.264 2.1413 0.29333 0.968 0.85066 1.672 0.55734 0.704 1.32 1.1147 0.792 0.41067 1.8187 0.41067 1.144 0 1.936-0.46933 0.79199-0.46933 1.2907-1.2027 0.528-0.76267 0.73333-1.7013 0.23467-0.968 0.23467-1.9653z"/>
        <path d="m146.74 19.609h4.0773v3.96h-4.0773z"/>
        <path d="m153.33 8.404h3.168v2.112h0.088q0.38133-0.55733 0.82133-1.0267t0.968-0.792q0.55734-0.32267 1.2613-0.49867 0.70399-0.20533 1.6133-0.20533 1.3787 0 2.552 0.616 1.2027 0.616 1.7013 1.9067 0.85066-1.1733 1.9653-1.848 1.1147-0.67467 2.7867-0.67467 2.4053 0 3.7253 1.1733 1.3493 1.1733 1.3493 3.9307v10.472h-3.344v-8.8587q0-0.90933-0.0587-1.6427-0.0587-0.76266-0.352-1.2907-0.264-0.55733-0.82133-0.85067-0.55734-0.29333-1.5253-0.29333-1.7013 0-2.464 1.056-0.76267 1.056-0.76267 2.992v8.888h-3.344v-9.7387q0-1.584-0.58667-2.376-0.55733-0.82133-2.0827-0.82133-0.64533 0-1.2613 0.264-0.58666 0.264-1.056 0.76267-0.44 0.49867-0.73333 1.232-0.264 0.73333-0.264 1.672v9.0053h-3.344z"/>
        <path d="m187.97 14.652q-0.0587-0.792-0.352-1.5253-0.264-0.73333-0.76267-1.2613-0.46933-0.55733-1.1733-0.88-0.67467-0.352-1.5253-0.352-0.88 0-1.6133 0.32267-0.704 0.29333-1.232 0.85066-0.49867 0.528-0.82133 1.2613-0.29334 0.73333-0.32267 1.584zm-7.8027 2.2q0 0.88 0.23467 1.7013 0.264 0.82133 0.76266 1.4373 0.49867 0.616 1.2613 0.99733 0.76267 0.352 1.8187 0.352 1.4667 0 2.3467-0.616 0.90933-0.64533 1.3493-1.9067h3.168q-0.264 1.232-0.90933 2.2-0.64533 0.968-1.5547 1.6427-0.90933 0.64533-2.0533 0.968-1.1147 0.352-2.3467 0.352-1.7893 0-3.168-0.58667-1.3787-0.58667-2.3467-1.6427-0.93867-1.056-1.4373-2.5227-0.46934-1.4667-0.46934-3.2267 0-1.6133 0.49867-3.0507 0.528-1.4667 1.4667-2.552 0.968-1.1147 2.3173-1.76 1.3493-0.64533 3.0507-0.64533 1.7893 0 3.1973 0.76267 1.4373 0.73333 2.376 1.9653 0.93866 1.232 1.3493 2.8453 0.44 1.584 0.23466 3.2853z"/>
    </g>
</svg>
