<svg xmlns="http://www.w3.org/2000/svg" xmlns:xlink="http://www.w3.org/1999/xlink" contentStyleType="text/css" height="619px" preserveAspectRatio="none" style="width:1214px;height:619px;background:#FFFFFF;" version="1.1" viewBox="0 0 1214 619" width="1214px" zoomAndPan="magnify"><defs/><g><!--cluster e8a48653851e28c69d0506508fb27fc5--><g id="cluster_e8a48653851e28c69d0506508fb27fc5"><polygon fill="none" points="16,16,26,6,238,6,238,501.48,228,511.48,16,511.48,16,16" style="stroke:#181818;stroke-width:1.0;"/><line style="stroke:#181818;stroke-width:1.0;" x1="228" x2="238" y1="16" y2="6"/><line style="stroke:#181818;stroke-width:1.0;" x1="16" x2="228" y1="16" y2="16"/><line style="stroke:#181818;stroke-width:1.0;" x1="228" x2="228" y1="16" y2="511.48"/><text fill="#000000" font-family="sans-serif" font-size="14" font-weight="bold" lengthAdjust="spacing" textLength="71" x="87.5" y="31.9951">Postgres</text></g><!--cluster b43fdd98b1fd705ae4c3a10cf25aad8a--><g id="cluster_b43fdd98b1fd705ae4c3a10cf25aad8a"><polygon fill="none" points="324,24.15,334,14.15,467,14.15,467,501.48,457,511.48,324,511.48,324,24.15" style="stroke:#181818;stroke-width:1.0;"/><line style="stroke:#181818;stroke-width:1.0;" x1="457" x2="467" y1="24.15" y2="14.15"/><line style="stroke:#181818;stroke-width:1.0;" x1="324" x2="457" y1="24.15" y2="24.15"/><line style="stroke:#181818;stroke-width:1.0;" x1="457" x2="457" y1="24.15" y2="511.48"/><text fill="#000000" font-family="sans-serif" font-size="14" font-weight="bold" lengthAdjust="spacing" textLength="67" x="358" y="40.1451">Backend</text></g><!--cluster aca33b9c046b2a50b8c3c54cc0380de8--><g id="cluster_aca33b9c046b2a50b8c3c54cc0380de8"><polygon fill="none" points="553,24.15,563,14.15,778,14.15,778,501.48,768,511.48,553,511.48,553,24.15" style="stroke:#181818;stroke-width:1.0;"/><line style="stroke:#181818;stroke-width:1.0;" x1="768" x2="778" y1="24.15" y2="14.15"/><line style="stroke:#181818;stroke-width:1.0;" x1="553" x2="768" y1="24.15" y2="24.15"/><line style="stroke:#181818;stroke-width:1.0;" x1="768" x2="768" y1="24.15" y2="511.48"/><text fill="#000000" font-family="sans-serif" font-size="14" font-weight="bold" lengthAdjust="spacing" textLength="72" x="625.5" y="40.1451">Frontend</text></g><!--cluster ee434023cf89d7dfb21f63d64f0f9d74--><g id="cluster_ee434023cf89d7dfb21f63d64f0f9d74"><polygon fill="none" points="864,16,874,6,1155,6,1155,501.48,1145,511.48,864,511.48,864,16" style="stroke:#181818;stroke-width:1.0;"/><line style="stroke:#181818;stroke-width:1.0;" x1="1145" x2="1155" y1="16" y2="6"/><line style="stroke:#181818;stroke-width:1.0;" x1="864" x2="1145" y1="16" y2="16"/><line style="stroke:#181818;stroke-width:1.0;" x1="1145" x2="1145" y1="16" y2="511.48"/><text fill="#000000" font-family="sans-serif" font-size="14" font-weight="bold" lengthAdjust="spacing" textLength="44" x="983.5" y="31.9951">Nginx</text></g><!--entity 086f471fbe3ab94b73c9798cd7d205b7--><g id="elem_086f471fbe3ab94b73c9798cd7d205b7"><rect fill="#F1F1F1" height="95.1875" rx="2.5" ry="2.5" style="stroke:#181818;stroke-width:0.5;" width="176" x="43" y="46"/><rect fill="#F1F1F1" height="10" style="stroke:#181818;stroke-width:0.5;" width="15" x="199" y="51"/><rect fill="#F1F1F1" height="2" style="stroke:#181818;stroke-width:0.5;" width="4" x="197" y="53"/><rect fill="#F1F1F1" height="2" style="stroke:#181818;stroke-width:0.5;" width="4" x="197" y="57"/><text fill="#000000" font-family="sans-serif" font-size="14" font-weight="bold" lengthAdjust="spacing" textLength="71" x="58" y="78.9951">postgres</text><text fill="#000000" font-family="sans-serif" font-size="14" lengthAdjust="spacing" textLength="4" x="58" y="95.292">&#160;</text><text fill="#000000" font-family="sans-serif" font-size="14" lengthAdjust="spacing" textLength="136" x="58" y="111.5889">image: postgres:13</text><text fill="#000000" font-family="sans-serif" font-size="14" lengthAdjust="spacing" textLength="4" x="58" y="127.8857">&#160;</text></g><!--entity 9c41b0dc0d9393d8a4c1a8e0ff9f1547--><g id="elem_9c41b0dc0d9393d8a4c1a8e0ff9f1547"><ellipse cx="193" cy="231.19" fill="#F1F1F1" rx="8" ry="8" style="stroke:#181818;stroke-width:0.5;"/><text fill="#000000" font-family="sans-serif" font-size="14" lengthAdjust="spacing" textLength="36" x="175" y="261.1851">5432</text></g><!--entity be37e40b068362ad529067845ac94bd0--><g id="elem_be37e40b068362ad529067845ac94bd0"><rect fill="#F1F1F1" height="39.2969" rx="2.5" ry="2.5" style="stroke:#181818;stroke-width:0.5;" width="189" x="32.5" y="456.19"/><polygon fill="#F1F1F1" points="204.5,461.19,204.5,475.19,216.5,475.19,216.5,467.19,210.5,461.19,204.5,461.19" style="stroke:#181818;stroke-width:0.5;"/><line style="stroke:#181818;stroke-width:0.5;" x1="210.5" x2="210.5" y1="461.19" y2="467.19"/><line style="stroke:#181818;stroke-width:0.5;" x1="216.5" x2="210.5" y1="467.19" y2="467.19"/><text fill="#000000" font-family="sans-serif" font-size="14" lengthAdjust="spacing" textLength="159" x="42.5" y="482.1851">/var/lib/postgresql/data</text></g><!--entity 3c9143a55bc234f7475461bb6bcda7ef--><g id="elem_3c9143a55bc234f7475461bb6bcda7ef"><rect fill="#F1F1F1" height="78.8906" rx="2.5" ry="2.5" style="stroke:#181818;stroke-width:0.5;" width="107" x="344.5" y="54.15"/><rect fill="#F1F1F1" height="10" style="stroke:#181818;stroke-width:0.5;" width="15" x="431.5" y="59.15"/><rect fill="#F1F1F1" height="2" style="stroke:#181818;stroke-width:0.5;" width="4" x="429.5" y="61.15"/><rect fill="#F1F1F1" height="2" style="stroke:#181818;stroke-width:0.5;" width="4" x="429.5" y="65.15"/><text fill="#000000" font-family="sans-serif" font-size="14" font-weight="bold" lengthAdjust="spacing" textLength="67" x="359.5" y="87.1451">backend</text><text fill="#000000" font-family="sans-serif" font-size="14" lengthAdjust="spacing" textLength="4" x="359.5" y="103.442">&#160;</text><text fill="#000000" font-family="sans-serif" font-size="14" lengthAdjust="spacing" textLength="4" x="359.5" y="119.7389">&#160;</text></g><!--entity d91273f2a530d0fbd7505db644dca00c--><g id="elem_d91273f2a530d0fbd7505db644dca00c"><ellipse cx="424" cy="231.19" fill="#F1F1F1" rx="8" ry="8" style="stroke:#181818;stroke-width:0.5;"/><text fill="#000000" font-family="sans-serif" font-size="14" lengthAdjust="spacing" textLength="36" x="406" y="261.1851">8000</text></g><!--entity d1d588873a1c658055073d0868add91a--><g id="elem_d1d588873a1c658055073d0868add91a"><rect fill="#F1F1F1" height="39.2969" rx="2.5" ry="2.5" style="stroke:#181818;stroke-width:0.5;" width="95" x="344.5" y="456.19"/><polygon fill="#F1F1F1" points="422.5,461.19,422.5,475.19,434.5,475.19,434.5,467.19,428.5,461.19,422.5,461.19" style="stroke:#181818;stroke-width:0.5;"/><line style="stroke:#181818;stroke-width:0.5;" x1="428.5" x2="428.5" y1="461.19" y2="467.19"/><line style="stroke:#181818;stroke-width:0.5;" x1="434.5" x2="428.5" y1="467.19" y2="467.19"/><text fill="#000000" font-family="sans-serif" font-size="14" lengthAdjust="spacing" textLength="65" x="354.5" y="482.1851">/backend</text></g><!--entity 2df658e42e00edd2554ae5f7b7924076--><g id="elem_2df658e42e00edd2554ae5f7b7924076"><rect fill="#F1F1F1" height="78.8906" rx="2.5" ry="2.5" style="stroke:#181818;stroke-width:0.5;" width="109" x="617.5" y="54.15"/><rect fill="#F1F1F1" height="10" style="stroke:#181818;stroke-width:0.5;" width="15" x="706.5" y="59.15"/><rect fill="#F1F1F1" height="2" style="stroke:#181818;stroke-width:0.5;" width="4" x="704.5" y="61.15"/><rect fill="#F1F1F1" height="2" style="stroke:#181818;stroke-width:0.5;" width="4" x="704.5" y="65.15"/><text fill="#000000" font-family="sans-serif" font-size="14" font-weight="bold" lengthAdjust="spacing" textLength="69" x="632.5" y="87.1451">frontend</text><text fill="#000000" font-family="sans-serif" font-size="14" lengthAdjust="spacing" textLength="4" x="632.5" y="103.442">&#160;</text><text fill="#000000" font-family="sans-serif" font-size="14" lengthAdjust="spacing" textLength="4" x="632.5" y="119.7389">&#160;</text></g><!--entity 4dd334b116c71560906b2e1c575b3f15--><g id="elem_4dd334b116c71560906b2e1c575b3f15"><ellipse cx="735" cy="231.19" fill="#F1F1F1" rx="8" ry="8" style="stroke:#181818;stroke-width:0.5;"/><text fill="#000000" font-family="sans-serif" font-size="14" lengthAdjust="spacing" textLength="36" x="717" y="261.1851">8080</text></g><!--entity 074eae7929a407fcbd37ab2e1009999a--><g id="elem_074eae7929a407fcbd37ab2e1009999a"><rect fill="#F1F1F1" height="39.2969" rx="2.5" ry="2.5" style="stroke:#181818;stroke-width:0.5;" width="94" x="569" y="456.19"/><polygon fill="#F1F1F1" points="646,461.19,646,475.19,658,475.19,658,467.19,652,461.19,646,461.19" style="stroke:#181818;stroke-width:0.5;"/><line style="stroke:#181818;stroke-width:0.5;" x1="652" x2="652" y1="461.19" y2="467.19"/><line style="stroke:#181818;stroke-width:0.5;" x1="658" x2="652" y1="467.19" y2="467.19"/><text fill="#000000" font-family="sans-serif" font-size="14" lengthAdjust="spacing" textLength="64" x="579" y="482.1851">/frontend</text></g><!--entity 66cabd68da46b4d2d33f7482774e20d9--><g id="elem_66cabd68da46b4d2d33f7482774e20d9"><rect fill="#F1F1F1" height="39.2969" rx="2.5" ry="2.5" style="stroke:#181818;stroke-width:0.5;" width="64" x="698" y="456.19"/><polygon fill="#F1F1F1" points="745,461.19,745,475.19,757,475.19,757,467.19,751,461.19,745,461.19" style="stroke:#181818;stroke-width:0.5;"/><line style="stroke:#181818;stroke-width:0.5;" x1="751" x2="751" y1="461.19" y2="467.19"/><line style="stroke:#181818;stroke-width:0.5;" x1="757" x2="751" y1="467.19" y2="467.19"/><text fill="#000000" font-family="sans-serif" font-size="14" lengthAdjust="spacing" textLength="34" x="708" y="482.1851">/.env</text></g><!--entity af7a7f0b3b2e57bd500b4dc604f1838f--><g id="elem_af7a7f0b3b2e57bd500b4dc604f1838f"><rect fill="#F1F1F1" height="95.1875" rx="2.5" ry="2.5" style="stroke:#181818;stroke-width:0.5;" width="210" x="929" y="46"/><rect fill="#F1F1F1" height="10" style="stroke:#181818;stroke-width:0.5;" width="15" x="1119" y="51"/><rect fill="#F1F1F1" height="2" style="stroke:#181818;stroke-width:0.5;" width="4" x="1117" y="53"/><rect fill="#F1F1F1" height="2" style="stroke:#181818;stroke-width:0.5;" width="4" x="1117" y="57"/><text fill="#000000" font-family="sans-serif" font-size="14" font-weight="bold" lengthAdjust="spacing" textLength="43" x="944" y="78.9951">nginx</text><text fill="#000000" font-family="sans-serif" font-size="14" lengthAdjust="spacing" textLength="4" x="944" y="95.292">&#160;</text><text fill="#000000" font-family="sans-serif" font-size="14" lengthAdjust="spacing" textLength="170" x="944" y="111.5889">image: nginx:1.22-alpine</text><text fill="#000000" font-family="sans-serif" font-size="14" lengthAdjust="spacing" textLength="4" x="944" y="127.8857">&#160;</text></g><!--entity 97b04832e42a04c7beb04c21e560b3fb--><g id="elem_97b04832e42a04c7beb04c21e560b3fb"><ellipse cx="1108" cy="231.19" fill="#F1F1F1" rx="8" ry="8" style="stroke:#181818;stroke-width:0.5;"/><text fill="#000000" font-family="sans-serif" font-size="14" lengthAdjust="spacing" textLength="18" x="1099" y="261.1851">80</text></g><!--entity 2fa7aee62485704c3e604f816b6a321d--><g id="elem_2fa7aee62485704c3e604f816b6a321d"><rect fill="#F1F1F1" height="39.2969" rx="2.5" ry="2.5" style="stroke:#181818;stroke-width:0.5;" width="147" x="880.5" y="456.19"/><polygon fill="#F1F1F1" points="1010.5,461.19,1010.5,475.19,1022.5,475.19,1022.5,467.19,1016.5,461.19,1010.5,461.19" style="stroke:#181818;stroke-width:0.5;"/><line style="stroke:#181818;stroke-width:0.5;" x1="1016.5" x2="1016.5" y1="461.19" y2="467.19"/><line style="stroke:#181818;stroke-width:0.5;" x1="1022.5" x2="1016.5" y1="467.19" y2="467.19"/><text fill="#000000" font-family="sans-serif" font-size="14" lengthAdjust="spacing" textLength="117" x="890.5" y="482.1851">/etc/nginx/conf.d</text></g><!--entity 39761586c825f5e9b55145ee3cf6e6c3--><g id="elem_39761586c825f5e9b55145ee3cf6e6c3"><rect fill="#F1F1F1" height="39.2969" rx="2.5" ry="2.5" style="stroke:#181818;stroke-width:0.5;" width="77" x="1062.5" y="456.19"/><polygon fill="#F1F1F1" points="1122.5,461.19,1122.5,475.19,1134.5,475.19,1134.5,467.19,1128.5,461.19,1122.5,461.19" style="stroke:#181818;stroke-width:0.5;"/><line style="stroke:#181818;stroke-width:0.5;" x1="1128.5" x2="1128.5" y1="461.19" y2="467.19"/><line style="stroke:#181818;stroke-width:0.5;" x1="1134.5" x2="1128.5" y1="467.19" y2="467.19"/><text fill="#000000" font-family="sans-serif" font-size="14" lengthAdjust="spacing" textLength="47" x="1072.5" y="482.1851">/media</text></g><!--entity e771ba177215eb3092edcb43cf53c8a7--><g id="elem_e771ba177215eb3092edcb43cf53c8a7"><ellipse cx="281" cy="366.19" fill="#F1F1F1" rx="8" ry="8" style="stroke:#181818;stroke-width:0.5;"/><text fill="#000000" font-family="sans-serif" font-size="14" lengthAdjust="spacing" textLength="36" x="263" y="396.1851">5432</text></g><!--entity 1624c420083928ef3e240dd88f2e52f0--><g id="elem_1624c420083928ef3e240dd88f2e52f0"><ellipse cx="510" cy="366.19" fill="#F1F1F1" rx="8" ry="8" style="stroke:#181818;stroke-width:0.5;"/><text fill="#000000" font-family="sans-serif" font-size="14" lengthAdjust="spacing" textLength="36" x="492" y="396.1851">8000</text></g><!--entity 600c44c1349e9154dce569ba37e2d70b--><g id="elem_600c44c1349e9154dce569ba37e2d70b"><ellipse cx="821" cy="366.19" fill="#F1F1F1" rx="8" ry="8" style="stroke:#181818;stroke-width:0.5;"/><text fill="#000000" font-family="sans-serif" font-size="14" lengthAdjust="spacing" textLength="36" x="803" y="396.1851">8080</text></g><!--entity dba3f4d0bb5aa6fcfa18da2c1f7a9775--><g id="elem_dba3f4d0bb5aa6fcfa18da2c1f7a9775"><ellipse cx="1198" cy="366.19" fill="#F1F1F1" rx="8" ry="8" style="stroke:#181818;stroke-width:0.5;"/><text fill="#000000" font-family="sans-serif" font-size="14" lengthAdjust="spacing" textLength="18" x="1189" y="396.1851">80</text></g><!--entity 6693bd50aa546e3861e26497d3dc4f1d--><g id="elem_6693bd50aa546e3861e26497d3dc4f1d"><rect fill="#F1F1F1" height="39.2969" rx="2.5" ry="2.5" style="stroke:#181818;stroke-width:0.5;" width="101" x="76.5" y="574.48"/><polygon fill="#F1F1F1" points="160.5,579.48,160.5,593.48,172.5,593.48,172.5,585.48,166.5,579.48,160.5,579.48" style="stroke:#181818;stroke-width:0.5;"/><line style="stroke:#181818;stroke-width:0.5;" x1="166.5" x2="166.5" y1="579.48" y2="585.48"/><line style="stroke:#181818;stroke-width:0.5;" x1="172.5" x2="166.5" y1="585.48" y2="585.48"/><text fill="#000000" font-family="sans-serif" font-size="14" lengthAdjust="spacing" textLength="71" x="86.5" y="600.4751">./postgres</text></g><!--entity c736ae51c797ba3ce8a3cf6a17fbb16c--><g id="elem_c736ae51c797ba3ce8a3cf6a17fbb16c"><rect fill="#F1F1F1" height="39.2969" rx="2.5" ry="2.5" style="stroke:#181818;stroke-width:0.5;" width="99" x="342.5" y="574.48"/><polygon fill="#F1F1F1" points="424.5,579.48,424.5,593.48,436.5,593.48,436.5,585.48,430.5,579.48,424.5,579.48" style="stroke:#181818;stroke-width:0.5;"/><line style="stroke:#181818;stroke-width:0.5;" x1="430.5" x2="430.5" y1="579.48" y2="585.48"/><line style="stroke:#181818;stroke-width:0.5;" x1="436.5" x2="430.5" y1="585.48" y2="585.48"/><text fill="#000000" font-family="sans-serif" font-size="14" lengthAdjust="spacing" textLength="69" x="352.5" y="600.4751">./backend</text></g><!--entity e7cd945be4bdf31a4f4dc346681d335c--><g id="elem_e7cd945be4bdf31a4f4dc346681d335c"><rect fill="#F1F1F1" height="39.2969" rx="2.5" ry="2.5" style="stroke:#181818;stroke-width:0.5;" width="98" x="567" y="574.48"/><polygon fill="#F1F1F1" points="648,579.48,648,593.48,660,593.48,660,585.48,654,579.48,648,579.48" style="stroke:#181818;stroke-width:0.5;"/><line style="stroke:#181818;stroke-width:0.5;" x1="654" x2="654" y1="579.48" y2="585.48"/><line style="stroke:#181818;stroke-width:0.5;" x1="660" x2="654" y1="585.48" y2="585.48"/><text fill="#000000" font-family="sans-serif" font-size="14" lengthAdjust="spacing" textLength="68" x="577" y="600.4751">./frontend</text></g><!--entity f11dc2b3152f6066eba5ec63c239c288--><g id="elem_f11dc2b3152f6066eba5ec63c239c288"><rect fill="#F1F1F1" height="39.2969" rx="2.5" ry="2.5" style="stroke:#181818;stroke-width:0.5;" width="59" x="700.5" y="574.48"/><polygon fill="#F1F1F1" points="742.5,579.48,742.5,593.48,754.5,593.48,754.5,585.48,748.5,579.48,742.5,579.48" style="stroke:#181818;stroke-width:0.5;"/><line style="stroke:#181818;stroke-width:0.5;" x1="748.5" x2="748.5" y1="579.48" y2="585.48"/><line style="stroke:#181818;stroke-width:0.5;" x1="754.5" x2="748.5" y1="585.48" y2="585.48"/><text fill="#000000" font-family="sans-serif" font-size="14" lengthAdjust="spacing" textLength="29" x="710.5" y="600.4751">.env</text></g><!--entity 160eeec9a8aa24ba030c792f06f67d69--><g id="elem_160eeec9a8aa24ba030c792f06f67d69"><rect fill="#F1F1F1" height="39.2969" rx="2.5" ry="2.5" style="stroke:#181818;stroke-width:0.5;" width="76" x="916" y="574.48"/><polygon fill="#F1F1F1" points="975,579.48,975,593.48,987,593.48,987,585.48,981,579.48,975,579.48" style="stroke:#181818;stroke-width:0.5;"/><line style="stroke:#181818;stroke-width:0.5;" x1="981" x2="981" y1="579.48" y2="585.48"/><line style="stroke:#181818;stroke-width:0.5;" x1="987" x2="981" y1="585.48" y2="585.48"/><text fill="#000000" font-family="sans-serif" font-size="14" lengthAdjust="spacing" textLength="46" x="926" y="600.4751">./nginx</text></g><!--entity c58a412d2a54dde90db79ec1e557972f--><g id="elem_c58a412d2a54dde90db79ec1e557972f"><rect fill="#F1F1F1" height="39.2969" rx="2.5" ry="2.5" style="stroke:#181818;stroke-width:0.5;" width="146" x="1028" y="574.48"/><polygon fill="#F1F1F1" points="1157,579.48,1157,593.48,1169,593.48,1169,585.48,1163,579.48,1157,579.48" style="stroke:#181818;stroke-width:0.5;"/><line style="stroke:#181818;stroke-width:0.5;" x1="1163" x2="1163" y1="579.48" y2="585.48"/><line style="stroke:#181818;stroke-width:0.5;" x1="1169" x2="1163" y1="585.48" y2="585.48"/><text fill="#000000" font-family="sans-serif" font-size="14" lengthAdjust="spacing" textLength="116" x="1038" y="600.4751">./backend/media</text></g><!--link 086f471fbe3ab94b73c9798cd7d205b7 to 9c41b0dc0d9393d8a4c1a8e0ff9f1547--><g id="link_086f471fbe3ab94b73c9798cd7d205b7_9c41b0dc0d9393d8a4c1a8e0ff9f1547"><path codeLine="52" d="M152.51,141.64 C166.08,171.31 182.34,206.86 189.41,222.34 " fill="none" id="086f471fbe3ab94b73c9798cd7d205b7-9c41b0dc0d9393d8a4c1a8e0ff9f1547" style="stroke:#181818;stroke-width:1.0;"/></g><!--link 9c41b0dc0d9393d8a4c1a8e0ff9f1547 to e771ba177215eb3092edcb43cf53c8a7--><g id="link_9c41b0dc0d9393d8a4c1a8e0ff9f1547_e771ba177215eb3092edcb43cf53c8a7"><path codeLine="53" d="M198.24,240.11 C213.93,263.82 260.39,334.04 275.9,357.47 " fill="none" id="9c41b0dc0d9393d8a4c1a8e0ff9f1547-e771ba177215eb3092edcb43cf53c8a7" style="stroke:#181818;stroke-width:1.0;"/></g><!--link be37e40b068362ad529067845ac94bd0 to 6693bd50aa546e3861e26497d3dc4f1d--><g id="link_be37e40b068362ad529067845ac94bd0_6693bd50aa546e3861e26497d3dc4f1d"><path codeLine="54" d="M127,495.78 C127,517.4 127,552.57 127,574.2 " fill="none" id="be37e40b068362ad529067845ac94bd0-6693bd50aa546e3861e26497d3dc4f1d" style="stroke:#181818;stroke-width:1.0;"/><text fill="#000000" font-family="sans-serif" font-size="13" lengthAdjust="spacing" textLength="14" x="128" y="540.5469">rw</text></g><!--link 086f471fbe3ab94b73c9798cd7d205b7 to be37e40b068362ad529067845ac94bd0--><g id="link_086f471fbe3ab94b73c9798cd7d205b7_be37e40b068362ad529067845ac94bd0"><path codeLine="55" d="M130.51,141.6 C129.62,225.65 127.8737,392.2703 127.2637,449.7503 " fill="none" id="086f471fbe3ab94b73c9798cd7d205b7-to-be37e40b068362ad529067845ac94bd0" style="stroke:#181818;stroke-width:1.0;stroke-dasharray:7.0,7.0;"/><polygon fill="#181818" points="127.2,455.75,131.2953,446.793,127.2531,450.7503,123.2957,446.7081,127.2,455.75" style="stroke:#181818;stroke-width:1.0;"/><text fill="#000000" font-family="sans-serif" font-size="13" lengthAdjust="spacing" textLength="23" x="129" y="303.2569">use</text></g><!--link 3c9143a55bc234f7475461bb6bcda7ef to d91273f2a530d0fbd7505db644dca00c--><g id="link_3c9143a55bc234f7475461bb6bcda7ef_d91273f2a530d0fbd7505db644dca00c"><path codeLine="56" d="M405.45,133.45 C411.39,164.44 419.24,205.36 422.49,222.31 " fill="none" id="3c9143a55bc234f7475461bb6bcda7ef-d91273f2a530d0fbd7505db644dca00c" style="stroke:#181818;stroke-width:1.0;"/></g><!--link d91273f2a530d0fbd7505db644dca00c to 1624c420083928ef3e240dd88f2e52f0--><g id="link_d91273f2a530d0fbd7505db644dca00c_1624c420083928ef3e240dd88f2e52f0"><path codeLine="57" d="M429.12,240.11 C444.45,263.82 489.86,334.04 505.01,357.47 " fill="none" id="d91273f2a530d0fbd7505db644dca00c-1624c420083928ef3e240dd88f2e52f0" style="stroke:#181818;stroke-width:1.0;"/></g><!--link d1d588873a1c658055073d0868add91a to c736ae51c797ba3ce8a3cf6a17fbb16c--><g id="link_d1d588873a1c658055073d0868add91a_c736ae51c797ba3ce8a3cf6a17fbb16c"><path codeLine="58" d="M392,495.78 C392,517.4 392,552.57 392,574.2 " fill="none" id="d1d588873a1c658055073d0868add91a-c736ae51c797ba3ce8a3cf6a17fbb16c" style="stroke:#181818;stroke-width:1.0;"/><text fill="#000000" font-family="sans-serif" font-size="13" lengthAdjust="spacing" textLength="14" x="393" y="540.5469">rw</text></g><!--link 3c9143a55bc234f7475461bb6bcda7ef to d1d588873a1c658055073d0868add91a--><g id="link_3c9143a55bc234f7475461bb6bcda7ef_d1d588873a1c658055073d0868add91a"><path codeLine="59" d="M389.89,133.49 C386.06,153.85 381.9,179.25 380,202.19 C372.1,297.33 383.3369,405.655 388.7969,450.005 " fill="none" id="3c9143a55bc234f7475461bb6bcda7ef-to-d1d588873a1c658055073d0868add91a" style="stroke:#181818;stroke-width:1.0;stroke-dasharray:7.0,7.0;"/><polygon fill="#181818" points="389.53,455.96,392.4003,446.5387,388.9191,450.9975,384.4603,447.5162,389.53,455.96" style="stroke:#181818;stroke-width:1.0;"/><text fill="#000000" font-family="sans-serif" font-size="13" lengthAdjust="spacing" textLength="23" x="378" y="303.2569">use</text></g><!--link 2df658e42e00edd2554ae5f7b7924076 to 4dd334b116c71560906b2e1c575b3f15--><g id="link_2df658e42e00edd2554ae5f7b7924076_4dd334b116c71560906b2e1c575b3f15"><path codeLine="60" d="M690.05,133.45 C704.45,164.44 723.47,205.36 731.34,222.31 " fill="none" id="2df658e42e00edd2554ae5f7b7924076-4dd334b116c71560906b2e1c575b3f15" style="stroke:#181818;stroke-width:1.0;"/></g><!--link 4dd334b116c71560906b2e1c575b3f15 to 600c44c1349e9154dce569ba37e2d70b--><g id="link_4dd334b116c71560906b2e1c575b3f15_600c44c1349e9154dce569ba37e2d70b"><path codeLine="61" d="M740.12,240.11 C755.45,263.82 800.86,334.04 816.01,357.47 " fill="none" id="4dd334b116c71560906b2e1c575b3f15-600c44c1349e9154dce569ba37e2d70b" style="stroke:#181818;stroke-width:1.0;"/></g><!--link 074eae7929a407fcbd37ab2e1009999a to e7cd945be4bdf31a4f4dc346681d335c--><g id="link_074eae7929a407fcbd37ab2e1009999a_e7cd945be4bdf31a4f4dc346681d335c"><path codeLine="62" d="M616,495.78 C616,517.4 616,552.57 616,574.2 " fill="none" id="074eae7929a407fcbd37ab2e1009999a-e7cd945be4bdf31a4f4dc346681d335c" style="stroke:#181818;stroke-width:1.0;"/><text fill="#000000" font-family="sans-serif" font-size="13" lengthAdjust="spacing" textLength="14" x="617" y="540.5469">rw</text></g><!--link 2df658e42e00edd2554ae5f7b7924076 to 074eae7929a407fcbd37ab2e1009999a--><g id="link_2df658e42e00edd2554ae5f7b7924076_074eae7929a407fcbd37ab2e1009999a"><path codeLine="63" d="M654.21,133.28 C637.44,172.02 613.52,233.82 604,290.19 C593.89,350.05 604.0881,416.2836 610.7281,449.9236 " fill="none" id="2df658e42e00edd2554ae5f7b7924076-to-074eae7929a407fcbd37ab2e1009999a" style="stroke:#181818;stroke-width:1.0;stroke-dasharray:7.0,7.0;"/><polygon fill="#181818" points="611.89,455.81,614.0715,446.2058,610.9218,450.9046,606.2229,447.755,611.89,455.81" style="stroke:#181818;stroke-width:1.0;"/><text fill="#000000" font-family="sans-serif" font-size="13" lengthAdjust="spacing" textLength="23" x="605" y="303.2569">use</text></g><!--link 66cabd68da46b4d2d33f7482774e20d9 to f11dc2b3152f6066eba5ec63c239c288--><g id="link_66cabd68da46b4d2d33f7482774e20d9_f11dc2b3152f6066eba5ec63c239c288"><path codeLine="64" d="M730,495.78 C730,517.4 730,552.57 730,574.2 " fill="none" id="66cabd68da46b4d2d33f7482774e20d9-f11dc2b3152f6066eba5ec63c239c288" style="stroke:#181818;stroke-width:1.0;"/><text fill="#000000" font-family="sans-serif" font-size="13" lengthAdjust="spacing" textLength="14" x="731" y="540.5469">rw</text></g><!--link 2df658e42e00edd2554ae5f7b7924076 to 66cabd68da46b4d2d33f7482774e20d9--><g id="link_2df658e42e00edd2554ae5f7b7924076_66cabd68da46b4d2d33f7482774e20d9"><path codeLine="65" d="M675.74,133.5 C679.14,167.12 684.6,216.96 691,260.19 C701.76,332.87 717.4224,412.7787 724.9524,450.0687 " fill="none" id="2df658e42e00edd2554ae5f7b7924076-to-66cabd68da46b4d2d33f7482774e20d9" style="stroke:#181818;stroke-width:1.0;stroke-dasharray:7.0,7.0;"/><polygon fill="#181818" points="726.14,455.95,728.2794,446.3363,725.1503,451.0489,720.4377,447.9198,726.14,455.95" style="stroke:#181818;stroke-width:1.0;"/><text fill="#000000" font-family="sans-serif" font-size="13" lengthAdjust="spacing" textLength="23" x="699" y="303.2569">use</text></g><!--link af7a7f0b3b2e57bd500b4dc604f1838f to 97b04832e42a04c7beb04c21e560b3fb--><g id="link_af7a7f0b3b2e57bd500b4dc604f1838f_97b04832e42a04c7beb04c21e560b3fb"><path codeLine="66" d="M1059.67,141.64 C1075.87,171.31 1095.27,206.86 1103.72,222.34 " fill="none" id="af7a7f0b3b2e57bd500b4dc604f1838f-97b04832e42a04c7beb04c21e560b3fb" style="stroke:#181818;stroke-width:1.0;"/></g><!--link 97b04832e42a04c7beb04c21e560b3fb to dba3f4d0bb5aa6fcfa18da2c1f7a9775--><g id="link_97b04832e42a04c7beb04c21e560b3fb_dba3f4d0bb5aa6fcfa18da2c1f7a9775"><path codeLine="67" d="M1113.36,240.11 C1129.41,263.82 1176.92,334.04 1192.78,357.47 " fill="none" id="97b04832e42a04c7beb04c21e560b3fb-dba3f4d0bb5aa6fcfa18da2c1f7a9775" style="stroke:#181818;stroke-width:1.0;"/></g><!--link 2fa7aee62485704c3e604f816b6a321d to 160eeec9a8aa24ba030c792f06f67d69--><g id="link_2fa7aee62485704c3e604f816b6a321d_160eeec9a8aa24ba030c792f06f67d69"><path codeLine="68" d="M954,495.78 C954,517.4 954,552.57 954,574.2 " fill="none" id="2fa7aee62485704c3e604f816b6a321d-160eeec9a8aa24ba030c792f06f67d69" style="stroke:#181818;stroke-width:1.0;"/><text fill="#000000" font-family="sans-serif" font-size="13" lengthAdjust="spacing" textLength="14" x="955" y="540.5469">rw</text></g><!--link af7a7f0b3b2e57bd500b4dc604f1838f to 2fa7aee62485704c3e604f816b6a321d--><g id="link_af7a7f0b3b2e57bd500b4dc604f1838f_2fa7aee62485704c3e604f816b6a321d"><path codeLine="69" d="M1024.11,141.6 C1006.43,225.65 971.345,392.3985 959.255,449.8785 " fill="none" id="af7a7f0b3b2e57bd500b4dc604f1838f-to-2fa7aee62485704c3e604f816b6a321d" style="stroke:#181818;stroke-width:1.0;stroke-dasharray:7.0,7.0;"/><polygon fill="#181818" points="958.02,455.75,963.7868,447.766,959.0492,450.8571,955.9581,446.1194,958.02,455.75" style="stroke:#181818;stroke-width:1.0;"/><text fill="#000000" font-family="sans-serif" font-size="13" lengthAdjust="spacing" textLength="23" x="993" y="303.2569">use</text></g><!--link 39761586c825f5e9b55145ee3cf6e6c3 to c58a412d2a54dde90db79ec1e557972f--><g id="link_39761586c825f5e9b55145ee3cf6e6c3_c58a412d2a54dde90db79ec1e557972f"><path codeLine="70" d="M1101,495.78 C1101,517.4 1101,552.57 1101,574.2 " fill="none" id="39761586c825f5e9b55145ee3cf6e6c3-c58a412d2a54dde90db79ec1e557972f" style="stroke:#181818;stroke-width:1.0;"/><text fill="#000000" font-family="sans-serif" font-size="13" lengthAdjust="spacing" textLength="14" x="1102" y="540.5469">rw</text></g><!--link af7a7f0b3b2e57bd500b4dc604f1838f to 39761586c825f5e9b55145ee3cf6e6c3--><g id="link_af7a7f0b3b2e57bd500b4dc604f1838f_39761586c825f5e9b55145ee3cf6e6c3"><path codeLine="71" d="M1042.28,141.6 C1057.09,225.65 1086.4686,392.3611 1096.5986,449.8411 " fill="none" id="af7a7f0b3b2e57bd500b4dc604f1838f-to-39761586c825f5e9b55145ee3cf6e6c3" style="stroke:#181818;stroke-width:1.0;stroke-dasharray:7.0,7.0;"/><polygon fill="#181818" points="1097.64,455.75,1100.0172,446.1923,1096.7722,450.8259,1092.1387,447.5808,1097.64,455.75" style="stroke:#181818;stroke-width:1.0;"/><text fill="#000000" font-family="sans-serif" font-size="13" lengthAdjust="spacing" textLength="23" x="1072" y="303.2569">use</text></g><!--SRC=[bLKzRoD73EttLmYg4WEMESFvT94YHSeWVP22Gt8CuUoLOojt1mJvxw5MagC5WXkSEYs6v7kFZoGzFn- -lEo_xkUdQJw8RhQ_7TwFJs_wljtG-qOBXP8YbkZK5qvL84AAK7hpkNFS_3rj-F3oUfXrFcwWf1wowqsHMWqj8zTS2qiM3x7bpU_JtTth9V_TtJJjN-X97pVNJuyEf-cFwOSVDziOq2y8AWVNG1YaOaKnFEoeAFHUkuiXJ_Hst7VYusRxy9dU7fxtxU6Qxy_d1w4ZBNaCKzO03LB1v4cYhv1o2P7Oa0fC_rpu_qpyIMSv1mNi8hKqroL390sCv82xZqI6PKtVsBg056DZZw7da6D8hhNKM2XhN-YtS_eJ-mlL0W1BDQdEP-oU8e90Rv8ZH6af1642u5kgxGQbE8cbb6pGECK2CK96iMOKCl2EFgZzydQOZzSeOa9ibI6aPYMX5KQEWHcmW6XPS_FIBRK6hm0gucCCfB7dbgiFaDF2hL_ohyYLCxaWWXYQSucpYmbC_URLSSoneNNobbo_nGavAAcLgMI5EZV1JATGW6e_kWtSwVnv2Kg9gKagGiOkYBVQre_YioNpPgKFINvzsizVprRNW04ySY_L36i6TpsXfD2XsuUmreDwfjoXeI69kKa4i3gS87HNi9nxFP-It_Xy-V_eTjxVq_FhVjR_L3fxFJS81Rt9J10uDxN_x9sQNYPIkwMgHtvOyZtmOUwxirQ-KoRLv4E9sK9HJu2AIoqHUYUt2LvKzkVHm9gJYoLnyR57hIr65wAgIP4qCPfOgv7Kd5qZbxDtKHj2zIfiey8z8XVAQrSxGyF10nIilcX7DSE8bD9DETzXRPDaFWysuXYgLfjlOIDV6zdmUXl1TYkNsESU15gpQKoTEpbhk6TdlQavtrfgzx4JBlQeUEePaKseOacstLAeML3O6YYhoDjHuup9VEyuMwy8sVRZIIKJexTcrbu5hcoicQM6sDIMJKT7mP0pXfIACtF6LUJLnTqvOT_GcKu9Kj96KJcXhPVAlfHLjVd3oIw1gdAbGkH38q0ml2PrwYbBgl_7xiOE76t9EY-s56nejOBOa2kR2wEnzdqQhlbxkH_lxT639SlGQgErlcGPjNlpkDc-VTcEYUrsijlzDBmbftn_lUjs6bw44xhXsXyzMB8Cnsnq9POi8tzVbHeIkoWrB7fLQdXVJkY6DsJquEo6qOePNPoBCxyzprUbXiGkIWsBNfKQdRO5tMXpV2-wOT4hkk5TN7R3wCwD7fpdPhJ-HzVmCZVVNfPNfOR4BaeDYtxiXi7LFS_ZO1T_BxfXqGkwVm40]--></g></svg>