<?xml version="1.0" encoding="UTF-8"?>
<svg version="1.1" viewBox="0 0 36 36" xmlns="http://www.w3.org/2000/svg">
    <title>decomp.me</title>
    <path d="m31.032 27.298c0 5.2377-5.6613 8.4298-12.645 8.4298s-12.645-3.1921-12.645-8.4298 5.6613-10.537 12.645-10.537 12.645 5.2995 12.645 10.537z" fill="var(--frog-secondary)" stroke-width=".70248"/>
    <g transform="matrix(.050363 0 0 .050363 -2.2481 -1.8545)">
        <path d="m108.64 390.97-16.569-140.08 88.87-138.58 143.1-57.239 146.11 37.657 88.87 106.95 12.05 58.745-399.16 69.289-27.113 63.264z" fill="#cd3539"/>
        <path d="m230.65 378.92 78.326-19.582 109.96-13.556 97.908 16.569 45.188 16.569 45.188-22.594 13.556-58.745-67.782-49.707-185.27-19.582-106.63 13.869-74.122 37.344-1.5063 60.251z" fill="#fff"/>
        <path d="m92.069 415.08 24.1-22.594 43.682-1.5063 34.644 24.1 6.0251 37.657-12.05 42.176-55.732 9.0376-48.201-31.632z" fill="#fff"/>
        <path d="m590.8 254.49c-1.2461-0.62109-2.4883-1.2461-4.3555-2.4883-23.645-118.84-128.18-204.09-249.51-204.09-140.62 0-255.11 114.49-255.11 255.11 0 29.867 5.6016 59.734 15.555 87.734-16.801 13.066-27.379 33.602-27.379 56 0 39.199 32.355 71.555 71.555 71.555 39.199 4e-3 71.555-32.352 71.555-71.555 0-31.109-19.91-57.867-47.91-67.199 3.1094-10.578 6.8438-20.535 10.578-29.246 11.82 24.266 36.09 41.066 65.332 41.066 4.9766 0 11.82-1.8672 27.379-6.2227 29.867-8.0898 79.023-22.398 130.04-22.398 83.379 0 120.71 17.422 121.33 18.043 3.7344 1.8672 23.645 10.578 37.957 10.578 39.82 0 72.18-32.355 72.18-72.18 0-27.996-14.934-52.262-39.199-64.707zm-484.09 47.91c0-126.93 103.29-230.22 230.22-230.22 104.54 0 194.13 69.066 221.51 168-31.113-10.574-83.379-22.398-159.91-22.398-123.2 0-182.31 31.109-192.89 36.711-1.2461 0.62109-1.8672 1.2461-2.4883 1.8672-18.043 11.199-29.867 29.246-33.602 49.777-11.199 18.043-20.535 40.445-29.246 68.445-7.4648 0-14.312 1.2461-21.156 3.7344-8.0859-24.27-12.441-49.777-12.441-75.914zm81.512 144.36c0 25.512-21.156 46.668-46.668 46.668s-46.664-21.156-46.664-46.668 21.156-46.668 46.668-46.668c25.508 4e-3 46.664 20.535 46.664 46.668zm369.6-80.887c-6.2227 0-19.91-4.9766-26.754-8.0898-1.8672-0.62109-41.688-20.535-131.91-20.535-54.754 0-106.4 14.312-136.89 23.023-8.7109 2.4883-18.043 4.9766-20.535 5.6016-26.133 0-47.289-21.156-47.289-47.289 0-17.422 9.332-33.602 24.891-41.688 1.2461-0.62109 1.8672-1.2461 2.4883-1.8672 14.934-8.0898 69.066-32.355 177.33-32.355 95.82 0 149.96 19.289 171.11 28.621 0 0 0.62109 0 0.62109 0.62109 3.7344 1.8672 6.8438 3.1094 8.0898 4.3555h0.62109c16.18 8.0898 25.512 24.266 25.512 42.312 4e-3 26.133-21.148 47.289-47.285 47.289z"/>
        <g fill="#fff">
            <path d="m441.46 178.58h18.668l-13.066 13.066c-1.2461 1.2461-1.2461 3.1094 0 4.3555 0.62109 0.62109 1.2461 0.62109 2.4883 0.62109 1.2461 0 1.8672 0 2.4883-0.62109l13.066-13.066v18.668c0 1.8672 1.2461 3.1094 3.1094 3.1094 1.8672 0 3.1094-1.2461 3.1094-3.1094v-18.668l13.066 13.066c0.62109 0.62109 1.2461 0.62109 2.4883 0.62109 0.62109 0 1.8672 0 2.4883-0.62109 1.2461-1.2461 1.2461-3.1094 0-4.3555l-13.066-13.066h18.668c1.8672 0 3.1094-1.2461 3.1094-3.1094 0-1.8672-1.2461-3.1094-3.1094-3.1094h-18.668l13.066-13.066c1.2461-1.2461 1.2461-3.1094 0-4.3555s-3.1094-1.2461-4.3555 0l-14.305 13.062v-18.668c0-1.8672-1.2461-3.1094-3.1094-3.1094-1.8672 0-3.1094 1.2461-3.1094 3.1094v18.668l-13.066-13.066c-1.2461-1.2461-3.1094-1.2461-4.3555 0s-1.2461 3.1094 0 4.3555l13.066 13.066h-18.668c-1.8672 0-3.1094 1.2461-3.1094 3.1094-4e-3 1.8672 1.2422 3.1133 3.1055 3.1133z"/>
            <path d="m340.04 149.96h18.668l-13.066 13.066c-1.2461 1.2461-1.2461 3.1094 0 4.3555 0.62109 0.62109 1.2461 0.62109 2.4883 0.62109 1.2461 0 1.8672 0 2.4883-0.62109l13.066-13.066v18.668c0 1.8672 1.2461 3.1094 3.1094 3.1094 1.8672 0 3.1094-1.2461 3.1094-3.1094v-18.668l13.066 13.066c0.62109 0.62109 1.2461 0.62109 2.4883 0.62109 1.2461 0 1.8672 0 2.4883-0.62109 1.2461-1.2461 1.2461-3.1094 0-4.3555l-13.066-13.066h18.668c1.8672 0 3.1094-1.2461 3.1094-3.1094 0-1.8672-1.2461-3.1094-3.1094-3.1094h-18.668l13.066-13.066c1.2461-1.2461 1.2461-3.1094 0-4.3555s-3.1094-1.2461-4.3555 0l-13.066 13.066v-18.668c0-1.8672-1.2461-3.1094-3.1094-3.1094-1.8672 0-3.1094 1.2461-3.1094 3.1094v18.668l-14.309-13.07c-1.2461-1.2461-3.1094-1.2461-4.3555 0s-1.2461 3.1094 0 4.3555l13.066 13.066h-18.668c-1.8672 0-3.1094 1.2461-3.1094 3.1094 0 1.8672 1.2461 3.1133 3.1094 3.1133z"/>
            <path d="m167.69 218.4h11.199l-8.0898 8.0898c-0.62109 0.62109-0.62109 1.8672 0 2.4883 0.62109 0.62109 0.62109 0.62109 1.2461 0.62109 0.62109 0 1.2461 0 1.2461-0.62109l8.0898-8.0898v11.199c0 1.2461 0.62109 1.8672 1.8672 1.8672s1.8672-0.62109 1.8672-1.8672v-11.199l8.0898 8.0898c0.62109 0.62109 0.62109 0.62109 1.2461 0.62109 0.62109 0 1.2461 0 1.2461-0.62109 0.62109-0.62109 0.62109-1.8672 0-2.4883l-8.0898-8.0898h11.199c1.2461 0 1.8672-0.62109 1.8672-1.8672s-0.62109-1.8672-1.8672-1.8672h-11.199l8.0898-8.0898c0.62109-0.62109 0.62109-1.8672 0-2.4883-0.62109-0.62109-1.8672-0.62109-2.4883 0l-8.0977 7.4688v-11.199c0-1.2461-0.62109-1.8672-1.8672-1.8672-1.2461 0-1.8672 0.62109-1.8672 1.8672l4e-3 11.199-8.0898-8.0898c-0.62109-0.62109-1.8672-0.62109-2.4883 0-0.62109 0.62109-0.62109 1.8672 0 2.4883l8.0898 8.0898h-11.199c-1.2461 0-1.8672 0.62109-1.8672 1.8672-4e-3 1.2461 0.62109 2.4883 1.8633 2.4883z"/>
            <path d="m241.11 161.16h13.688l-9.957 9.957c-0.62109 0.62109-0.62109 2.4883 0 3.1094s1.2461 0.62109 1.8672 0.62109c0.62109 0 1.2461 0 1.8672-0.62109l9.957-9.957v13.688c0 1.2461 1.2461 2.4883 2.4883 2.4883 1.2461 0 2.4883-1.2461 2.4883-2.4883v-13.688l9.957 9.957c0.62109 0.62109 1.2461 0.62109 1.8672 0.62109 0.62109 0 1.2461 0 1.8672-0.62109 0.62109-0.62109 0.62109-2.4883 0-3.1094l-9.957-9.957h13.688c1.2461 0 2.4883-1.2461 2.4883-2.4883 0-1.2461-1.2461-2.4883-2.4883-2.4883h-13.688l9.957-9.957c0.62109-0.62109 0.62109-2.4883 0-3.1094-0.62109-0.62109-2.4883-0.62109-3.1094 0l-11.199 9.9531v-13.688c0-1.2461-1.2461-2.4883-2.4883-2.4883-1.2461 0-2.4883 1.2461-2.4883 2.4883v13.688l-9.3359-9.957c-0.62109-0.62109-2.4883-0.62109-3.1094 0s-0.62109 2.4883 0 3.1094l9.957 9.957h-13.688c-1.2461 0-2.4883 1.2461-2.4883 2.4883-4e-3 1.2461 0.61719 2.4922 1.8594 2.4922z"/>
        </g>
    </g>
    <g stroke-width=".70248">
        <path d="m28.05 20.748c0.961-0.77273 1.5771-1.9564 1.5771-3.2848 0-2.3273-1.8876-4.2149-4.2149-4.2149-2.0098 0-3.688 1.4078-4.1102 3.2911-0.9048-0.3393-1.8848-0.53248-2.9146-0.53248-1.0291 0-2.0098 0.19318-2.9146 0.53248-0.42219-1.8834-2.1004-3.2911-4.1102-3.2911-2.3273 0-4.2149 1.8876-4.2149 4.2149 0 1.3284 0.61608 2.5121 1.5771 3.2848-1.8581 1.8827-2.982 4.2212-2.982 6.55 0 5.2377 5.6613 0.70248 12.645 0.70248s12.645 4.5352 12.645-0.70248c0-2.3287-1.124-4.6673-2.982-6.55z" fill="var(--frog-primary)"/>
        <circle class="eyeL" cx="11.012" cy="17.112" r="2.4587" fill="#fff"/>
        <circle class="pupilL" cx="11.012" cy="17.112" r="1.0537" fill="var(--frog-pupil)"/>
        <circle class="eyeR" cx="25.764" cy="17.112" r="2.4587" fill="#fff"/>
        <circle class="pupilR" cx="25.764" cy="17.112" r="1.0537" fill="var(--frog-pupil)"/>
        <circle cx="15.578" cy="25.893" r=".70249" fill="var(--frog-nose)"/>
        <circle cx="21.198" cy="25.893" r=".70249" fill="var(--frog-nose)"/>
    </g>
</svg>
