<?xml version="1.0"?>
<svg viewBox="0 0 570 570" xmlns="http://www.w3.org/2000/svg" xmlns:svg="http://www.w3.org/2000/svg" enable-background="new 0 0 220 162" version="1.1" xml:space="preserve">
 <metadata id="metadata29">image/svg+xml</metadata>

 <g class="layer">
  <title>Layer 1</title>
  <path d="m346.42,35.84c21.05,3.17 42.56,10.52 53.77,13.95c22.6,6.91 59.27,28.37 72.23,38.66c6.13,4.87 19.01,17.62 24,24.04c4.86,6.25 14.15,19.8 20.07,28.14c9.43,13.78 20.54,34.29 29.96,53.16c10.52,21.09 11.24,27.2 14.41,44.83l6.95,31.08c0.66,5.37 1.2,25.09 -10.37,27.85c-11.57,2.76 -22.26,-2.58 -27.31,-10.38c-6.98,-10.79 -6.02,-26.12 -13.91,-43.66c-6.16,-14.18 -8.85,-34.78 -18.67,-49.61l-7.71,-13.03c-13.64,-21 -27.85,-37.67 -36.33,-48.53c-7.47,-9.13 -21.4,-21.54 -34.63,-30.38c-12.22,-7.41 -31.98,-15.85 -46.23,-20.21c-4.54,-1.48 -23.98,-7.19 -36.06,-8.8c-16.39,-1.84 -27.18,-4.43 -42.75,-5.53c-19.23,-1.36 -28.45,-3.07 -53.4,-0.15c-9.45,2.56 -24.42,3.57 -37.9,8.73c-10.88,4.44 -26.02,11.62 -40.85,20.32c-15.96,8.75 -40.18,26.65 -56.24,41.92c-16.19,17.3 -24.29,26.58 -35.45,48.52c-4.94,10.86 -14.51,27.64 -18.36,39.49c-2.64,12.02 -7.66,34.46 -6.81,45.36c0.38,19.52 -1.33,23.55 0.14,39.5c0.06,14.37 4.77,24.32 6.73,36.08c1.68,8.12 9.46,36.22 14.29,42.74c21.9,47.2 51.3,67.63 84.07,82.38c9.24,4.7 38.14,12.44 46.5,14.65c14.25,2.57 33.01,4.28 51.07,4.64c18.99,0.37 45.18,-2.21 61.07,-8.05c17.19,-6.33 37.07,-15.32 36.85,-15.06c7.98,-4.4 20.16,-11.58 23.94,-14.74c7.33,-4.7 11.75,-6.52 16.1,-11.04c6.26,-5.48 10.06,-8.63 14.8,-15.43c2.64,-3.83 6.84,-9.69 10.93,-14.88c4.4,-7.2 6.92,-14.79 11.22,-24.19c5.13,-13.9 4.34,-13.23 5.31,-27.99c0.92,-4.28 -0.09,-18.65 -0.87,-21.1c-2.32,-13.26 -1.5,-24.96 -4.53,-37.84c-4.1,-17.42 -7.51,-30.47 -12.74,-47.19c-4.92,-18.83 -19.38,-36.26 -30.23,-48.72c-6.72,-7.72 -27.58,-25.96 -56.51,-37.34c-8.15,-2.74 -21.49,-5.85 -29.96,-7.4c-18.08,-1.89 -21.03,-0.67 -38.33,0.59c-5.96,1.03 -19.79,3.86 -24.87,5.65c-14.87,5.23 -20.34,8.54 -35.54,17.85c-7.07,4.11 -12.41,7.25 -19.64,14.04c-5.77,5.34 -9.9,14.42 -14.57,19.75c-6.41,8.71 -13.54,20.33 -18.32,32.87c-5.18,12.48 -6.85,30.04 -6.07,41.33c0,8.62 2.35,24.38 3.28,27.83c0.92,3.45 3.25,14.16 3.76,16.31c0.51,2.14 6.08,13.46 6.84,15.11c3.14,6.69 9.15,16.28 19.27,26.09c7.47,8.16 21.91,16.17 32.73,19.27c9.7,5.32 26.05,6.22 35.09,6.24c4.45,-0.27 15.83,-0.97 21.76,-2.39c12.03,-2.89 14.25,-2.96 26.65,-8.35c11.13,-5.16 18.68,-7.02 26.44,-12.75c0,0 10.64,-8.34 15.48,-14.43c2.55,-3.22 6.93,-18.57 6.15,-28.07c-0.37,-13.01 1.53,-20.39 -1.13,-31.09c-2.66,-10.7 -7.18,-23.11 -12.1,-30.76c-4.98,-7.74 -15.68,-15.28 -27.86,-21.29c-6.81,-3.37 -22.97,-6.49 -29.82,-7.29c-13.02,-1.55 -23.91,4.36 -30.52,11.12c-5.73,6.55 -17.06,20.16 -12.55,34.23c4.08,12.73 9.01,26.3 28.11,25.29c13.1,2.72 28.27,-1.23 33.32,1.09c7.49,4.26 10.37,13.66 7.65,20.2c-1.9,12.63 -14,14.15 -26.92,15.12c-11.55,1.93 -40.9,-3.72 -47.35,-8.56c-4.32,-2.57 -10.94,-8.74 -15.61,-12.92c-3.35,-2.99 -7.15,-9.69 -9.74,-14.49c-3.19,-5.91 -4.79,-10.25 -5.61,-14.1c-0.97,-4.56 -2.97,-13.29 -2.22,-22c0.51,-5.88 2.09,-8.38 3.66,-16.98c3.12,-9.75 7,-17.18 13.23,-25.62c8.14,-8.26 18.46,-18.07 28.53,-22.63c8.88,-4.7 24.45,-6.43 38.53,-5.61c11.43,1.1 24.94,2.48 33.88,5.49c15.29,5.47 19.66,6.55 32.22,14.47c10.61,6.57 21.28,18.64 27.24,28.64c12.67,25.93 19.94,54.78 14.65,93.6c-0.43,6.56 -2.48,12.96 -6.57,21.65c-3.78,8.02 -10.41,17.77 -20.34,25.11c-4,3.7 -10.31,8.26 -15.45,10.93c-7.29,4.42 -12.2,6.72 -19.81,10.55c-6.69,3.14 -14.47,6.73 -24.63,9.56c-11.01,4.35 -19.46,4.53 -33.3,6.59c-13.63,3.42 -50.92,0.98 -73.12,-8.82c-15.15,-6.37 -32.16,-17.61 -45.1,-31.3c-7.18,-7.53 -14.2,-21.18 -16.27,-23.98c-10.29,-19.77 -12.3,-38.37 -13.94,-42.26c-2.24,-5.31 -3.36,-17.21 -4.86,-25.36c-1.69,-9.12 -0.65,-47.4 8.57,-71.97c5.2,-9.78 8.24,-18.5 11.75,-23.09c6.32,-8.98 9.37,-14.6 14.75,-20.97c8.1,-9.83 14,-17.85 21.89,-23.5c20.1,-16.34 36.9,-24.97 59.62,-35.76c28.23,-11.5 36.71,-9.12 63.43,-8.7c12.02,0.11 29.51,3.89 38.11,5.46c15.97,2.12 25.13,5.97 35.92,8.98c11.55,3.22 18.23,8.37 27.71,14.1c7.79,5.03 16.98,11.94 23.04,17.54c15.51,11.37 23,23.33 32.5,38.02c1.73,2.46 13.02,26.52 14.82,33.22c0.83,3.35 3.39,12.98 5.02,18.62c2.11,8.93 3.13,16.84 5.49,26.92c2.11,10.38 5.69,29.98 7.24,48.3c2.61,15.72 -1.57,47.8 -4.04,57.64c-5.49,18.37 -15.11,40.78 -34.08,62.36c-8.06,9.56 -16.64,16.96 -26.54,25.01c-7.57,6.32 -14.07,9.99 -25.77,16.98c-15.89,9.48 -27.98,15.53 -50.25,24.24c-9.07,2.91 -20.49,6.74 -32.81,9.29c-23.86,2.21 -48.37,4.32 -75.13,1.14c-26.77,-3.19 -53.58,-10.72 -69.41,-15.59c-8.74,-3.28 -25.66,-10.38 -32.76,-14.2c-4.62,-2.35 -20.1,-12.93 -22.73,-15.48c-10.61,-6.57 -34.36,-28.89 -49.69,-49.72c-3.36,-6.43 -15.44,-25.73 -18.05,-34.18c-6.97,-14.29 -11.82,-31.59 -14.67,-38.99c-3.01,-17.24 -8.1,-28.35 -10.08,-45.66c0.23,-4.07 -0.81,-13.67 -1.74,-18.97c1.35,-11.86 -0.45,-23.02 1.89,-35.92c2.07,-10.89 4.8,-15.43 5.46,-25.27c0.64,-4.21 6.05,-16.87 7.5,-22.5c4.37,-9.28 5.46,-16.93 11.16,-27.3c8.22,-16.16 16.82,-34.75 30.02,-50.98c3.77,-5.03 14.47,-17.12 18.11,-21.3c8.62,-8.62 13.68,-9.97 23.45,-18.62c1.02,-0.64 7.47,-8 14.23,-10.53c11.2,-8.65 20.88,-11.83 31.54,-19.7c21.36,-10.65 29.14,-14.24 50.35,-23.06c12.25,-4.37 29.35,-6.79 35.5,-9.18c11.71,-0.72 23.58,-4.46 35.9,-3.71c13.82,-0.13 27.76,0.85 41.65,2.11c9.4,0.58 21.62,1.03 38.2,4.63l0,0z" fill="#cf3311" id="path23"/>
 </g>
</svg>