<svg viewBox="0 0 570 570" xmlns="http://www.w3.org/2000/svg" >
 <defs>
  <linearGradient id="linearGradient1196" x1="447.96" x2="294.01" y1="-19.244" y2="291.87" gradientTransform="matrix(.78381 0 0 .82831 48.581 -9.195)" gradientUnits="userSpaceOnUse">
   <stop stop-color="#00f" offset="0"/>
   <stop stop-color="#0ff" offset="1"/>
  </linearGradient>
 </defs>
 <g transform="matrix(1.0573 0 0 1.0573 -81.644 110.14)">
  <!-- fallback -->
  <path d="m227.91 152.86v-83.685h235.47v167.37h-235.47z" fill="#1a7abb"/>
  <!-- gradient -->
  <path d="m227.91 152.86v-83.685h235.47v167.37h-235.47z" fill="url(#linearGradient1196)"/>
  <g fill="#4b435b">
   <path d="m224.87 263.01s106.52 37.594 238.11 0c11.637-7.1641 12.531-17.012 12.531-17.012l-3.5781-168.29s-0.89453-15.215-13.43-17.902c-12.527-2.6836-120.84-20.586-230.05 0-7.1641 3.5859-13.422 5.3711-18.793 180.82-1.7969 13.422 15.211 22.375 15.211 22.375zm8.9883-189.01h225.86v152.14l-225.86-4e-3z"/>
   <path d="m102.02 51.83c34.07-1.6367 92.863-30.102 92.863-30.102-91.461 0.70312-92.863 21.703-92.863 30.102z"/>
   <path d="m593.43 51.83c-34.07-1.6328-92.867-30.098-92.867-30.098 91.465 0.69922 92.867 21.699 92.867 30.098z"/>
  </g>
  <path d="m602.52 78.666s0.93359-16.801-13.066-20.535-92.348-15.863-109.64-42c-18.227-0.93359-133.03 0-133.03 0s-114.8-0.93359-133.03-0.0039c-17.293 26.137-95.641 38.266-109.64 42-13.999 3.734-13.066 20.535-13.066 20.535s-11.199 144.67-10.266 166.13c0.93359 21.465 24.266 34.535 33.602 33.602 9.3359-0.93359 63.465 14.934 84 22.398 72.328 15.262 148.4 14 148.4 14s61.219 0.48828 148.4-14c20.535-7.4648 74.664-23.336 84-22.398 9.3359 0.93359 32.664-12.137 33.602-33.602 0.93359-21.465-10.266-166.13-10.266-166.13zm-440.07 91.93h-23.801v-20.535h-21.465v-24.734h21.93l0.47266-21.465h24.266v21.934h21.465v24.266h-22.863zm21.465 78.867c-4.8945 0-8.8633-3.9648-8.8633-8.8633 0-4.8945 3.9688-8.8633 8.8633-8.8633 4.8984 0 8.8711 3.9688 8.8711 8.8633 0 4.8906-3.9688 8.8633-8.8711 8.8633zm0-31.73c-4.8945 0-8.8633-3.7578-8.8633-8.3984s3.9688-8.3984 8.8633-8.3984c4.8984 0 8.8711 3.7578 8.8711 8.3984s-3.9688 8.3984-8.8711 8.3984zm284.2 49.465c-137.2 39.199-248.27 0-248.27 0s-17.734-9.3359-15.863-23.328c5.6016-182.93 12.129-184.8 19.602-188.54 113.87-21.465 226.8-2.8008 239.86 0 13.066 2.8008 14 18.664 14 18.664l3.7344 175.46s-0.93359 10.27-13.07 17.734zm28.941-118.51c0-9.1602 7.7266-16.586 17.266-16.586 9.5352-4e-3 17.266 7.4219 17.266 16.586 0 9.1602-7.7266 16.586-17.266 16.586-9.543 0-17.266-7.4258-17.266-16.586zm67.195 96.871v0.17188l-54.98 13.402c-0.0937 0.0508-0.17969 0.13281-0.28125 0.13281-0.0352 0-0.0625-0.0391-0.0937-0.043l-0.17188 0.043v-0.12891c-0.58203-0.29688-1.0195-1.4492-1.0195-2.9062 0-1.4492 0.4375-2.6055 1.0195-2.9062l-4e-3 -0.125 55.531-12.836c0.96875 0 1.7461 1.1641 1.7461 2.5977 8e-3 1.4336-0.77734 2.5977-1.7461 2.5977zm0-12.363v0.17188l-54.98 13.402c-0.0937 0.0508-0.17969 0.13281-0.28125 0.13281-0.0352 0-0.0625-0.0391-0.0937-0.043l-0.17188 0.043v-0.12891c-0.58203-0.29688-1.0195-1.4492-1.0195-2.9062 0-1.4492 0.4375-2.6055 1.0195-2.9062v-0.12891l55.527-12.832c0.96875 0 1.7461 1.1641 1.7461 2.5977 8e-3 1.4336-0.77734 2.5977-1.7461 2.5977zm0-11.898v0.17187l-54.98 13.402c-0.0937 0.0508-0.17969 0.13281-0.28125 0.13281-0.0352 0-0.0625-0.0391-0.0937-0.043l-0.17188 0.043v-0.12891c-0.58203-0.29687-1.0195-1.4492-1.0195-2.9062 0-1.4492 0.4375-2.6055 1.0195-2.9062v-0.12891l55.531-12.836c0.96875 0 1.7461 1.1641 1.7461 2.5977 4e-3 1.4336-0.78125 2.6016-1.75 2.6016zm0-11.438v0.17187l-54.98 13.402c-0.0937 0.0508-0.17969 0.13281-0.28125 0.13281-0.0352 0-0.0625-0.0391-0.0937-0.043l-0.17188 0.043v-0.12891c-0.58203-0.29687-1.0195-1.4492-1.0195-2.9062 0-1.4492 0.4375-2.6055 1.0195-2.9062v-0.12891l55.531-12.836c0.96875 0 1.7461 1.1641 1.7461 2.5977 4e-3 1.4375-0.78125 2.6016-1.75 2.6016zm0-11.199v0.17188l-54.98 13.402c-0.0937 0.0508-0.17969 0.13281-0.28125 0.13281-0.0352 0-0.0625-0.0391-0.0937-0.043l-0.17188 0.043v-0.12891c-0.58203-0.29688-1.0195-1.4492-1.0195-2.9062 0-1.4492 0.4375-2.6055 1.0195-2.9062v-0.12891l55.531-12.836c0.96875 0 1.7461 1.1641 1.7461 2.5977 4e-3 1.4375-0.78125 2.6016-1.75 2.6016zm-1.3984-48.598c-9.5352 0-17.266-8.043-17.266-17.965 0-9.918 7.7266-17.965 17.266-17.965 9.5352 0 17.266 8.0469 17.266 17.965-4e-3 9.918-7.7305 17.965-17.266 17.965z"/>
  <path transform="matrix(.75 0 0 .75 62.787 3.2665)" d="m339.44 414.16c-42.34-1.5475-86.017-5.6841-122.95-11.644-26.829-4.3299-33.039-5.747-51.317-11.711-38.483-12.557-78.238-22.829-94.853-24.509-7.5847-0.7667-11.918-1.8164-16.037-3.8846-12.09-6.0714-21.45-15.441-26.682-26.71-2.363-5.0894-2.476-6.4213-2.3594-27.797 0.13256-24.297 1.4268-46.9 7.9582-138.98 5.3129-74.905 5.6599-78.377 8.3633-83.676 2.5733-5.0441 7.2776-9.2464 12.128-10.834 1.926-0.63025 14.567-3.5755 28.091-6.5449 64.499-14.162 100.51-28.359 116.32-45.851l3.9519-4.3743h352.91l5.5662 5.6633c17.194 17.494 50.138 30.151 117.39 45.099 14.812 3.2925 27.706 6.4087 28.652 6.9249 3.2484 1.7719 8.5628 8.0665 10.274 12.169 1.2736 3.0534 2.7808 18.949 5.8796 62.008 7.5276 104.6 8.8833 128.01 8.9862 155.19l0.10114 26.728-3.6223 6.9492c-4.7393 9.0921-14.897 19.033-24.054 23.541-5.4719 2.6938-9.1826 3.6742-16.441 4.344-16.286 1.5028-49.715 9.9626-88.452 22.384-26.172 8.3925-23.622 7.8122-53.456 12.165-29.806 4.3486-66.082 8.4236-95.685 10.749-20.645 1.6214-73.047 3.9268-82.321 3.6216-2.646-0.087-15.395-0.54515-28.331-1.018zm89.271-41.033c32.572-3.0466 61.126-7.8712 93.013-15.715 19.434-4.7808 22.529-6.2127 28.78-13.315 8.6282-9.8022 8.1984 0.10125 5.5984-129-1.2694-63.031-2.5426-117.39-2.8292-120.79-0.95704-11.364-7.2235-21.333-15.353-24.424-3.6287-1.3796-30.704-5.6134-49.874-7.7988-79.081-9.0154-161.88-8.8434-233.6 0.48522-23.258 3.0252-40.768 6.2395-43.413 7.9696-9.5508 6.2464-14.945 48.108-19.704 152.9-2.374 52.277-3.8086 101.67-3.0539 105.15 1.2575 5.7888 6.4572 13.128 13.083 18.465 5.0952 4.1048 8.1862 5.5638 17.607 8.3108 32.523 9.4835 76.983 16.744 118.45 19.342 20.378 1.277 69.917 0.41943 91.299-1.5806zm202.73-40.102c19.331-4.7056 36.23-9.0252 37.553-9.5991 2.8119-1.2198 3.3409-6.143 0.76622-7.131-0.9016-0.34598-16.658 2.8209-35.013 7.0375-42.927 9.861-41.141 9.3559-41.935 11.857-0.87588 2.7597 0.30804 6.3908 2.0837 6.3908 0.76861 0 17.214-3.85 36.545-8.5556zm-463.57-6.0584c7.7857-4.5991 7.7857-16.421 0-21.02-5.0922-3.008-10.371-2.3372-14.558 1.8503-3.0484 3.0484-3.635 4.4052-3.635 8.4087 0 9.9177 9.8043 15.717 18.193 10.761zm467.72-11.521c34.487-8.4512 35.288-8.7075 35.602-11.393 0.65311-5.583-0.49346-5.4824-38.809 3.404-19.992 4.6368-36.721 8.4383-37.175 8.4478-1.8511 0.0389-3.1548 5.0594-1.9152 7.3755 0.97246 1.8171 1.8132 2.1328 4.1192 1.547 1.5935-0.40484 18.774-4.6266 38.178-9.3818zm-2.1382-15.339c36.666-9.1209 37.425-9.3639 37.74-12.073 0.17673-1.5204-0.30437-3.2501-1.0691-3.8439-2.1124-1.6402-75.51 15.603-76.876 18.061-1.2323 2.2174-0.13445 7.2751 1.5651 7.2104 0.67127-0.0256 18.059-4.2352 38.639-9.3547zm4.2086-16.238c17.015-4.1647 31.568-8.0966 32.341-8.7376 1.6263-1.3497 1.882-5.8278 0.3856-6.7526-0.8068-0.49862-48.326 9.9269-71.505 15.688-5.3406 1.3274-7.5633 4.5211-5.6433 8.1087 1.3553 2.5324-3.796 3.4957 44.422-8.3064zm-468.42-0.0359c4.0598-3.1935 5.5177-8.5129 3.5945-13.116-2.1339-5.1071-5.5157-7.1806-11.711-7.1806-4.3107 0-5.7193 0.52939-8.315 3.1251-2.5587 2.5587-3.1251 4.0268-3.1251 8.1006s0.56638 5.5419 3.1251 8.1006c2.6109 2.6109 3.9944 3.1251 8.4087 3.1251 3.6784 0 6.1159-0.65468 8.0232-2.1549zm464.14-13.89c19.365-4.7338 35.842-9.1329 36.617-9.7758 1.6055-1.3324 1.8963-5.8248 0.43551-6.7276-0.53504-0.33068-17.734 3.261-38.221 7.9815-40.739 9.3872-42.096 9.9516-38.786 16.136 0.69837 1.3049 1.8282 1.9029 2.9401 1.5562 0.99321-0.30968 17.65-4.4362 37.015-9.17zm-499.74-59.862v-13.898h29.935v-33.142h-27.737l-0.29744-14.7-0.29745-14.7-33.677-0.58885v28.92h-29.935v34.212h28.866v27.797h33.142zm476.05 5.2813c8.6752-2.4091 15.693-11.942 15.693-21.318 0-12.76-10.105-22.404-23.473-22.404-7.2873 0-13.35 2.6391-17.858 7.7743-7.8412 8.9306-7.3062 21.575 1.2767 30.171 6.3164 6.3261 14.983 8.3812 24.362 5.7767zm65.755-20.84c14.706-6.1432 19.371-25.349 9.3486-38.489-6.771-8.8773-20.317-11.257-30-5.271-13.734 8.4913-15.228 29.832-2.8075 40.108 6.4476 5.3339 15.908 6.8069 23.459 3.6526z" fill="#593f8a" stroke-opacity="0"/>
 </g>
</svg>
