<?xml version="1.0" encoding="UTF-8" standalone="no"?>
<svg
   width="32"
   height="32"
   viewBox="0 0 32 32"
   version="1.1"
   id="svg51"
   xmlns="http://www.w3.org/2000/svg"
   xmlns:svg="http://www.w3.org/2000/svg">
  <!-- from https://raw.githubusercontent.com/coreui/coreui-icons/master/svg/brand/cib-nintendo-gamecube.svg -->
  <defs
     id="defs55" />
  <g
     id="g4221"
     transform="matrix(0.75,0,0,0.75,4.0000156,-6.562725e-4)">
    <path
       id="path158-5"
       d="M 16.000125,8.7503e-4 2.630985,7.719625 7.043094,10.260641 16.000125,5.082906 23.547,9.454 27.959109,6.907125 Z m 0,8.19335997 -6.271484,3.623046 6.271484,3.621094 6.271484,-3.621094 -6.271484,-3.61914 z"
       style="fill:#7456bd;fill-opacity:1" />
    <path
       id="path158-3-7"
       d="m 1.97289,8.82275 v 15.453125 l 13.386719,7.722656 V 26.906734 L 6.385,21.729 V 11.369625 Z m 7.109375,4.105468 v 7.244141 h 0.0059 l 6.271485,3.621094 v -7.246094 z"
       style="fill:#583b9b;fill-opacity:1" />
    <path
       id="path158-7-2"
       d="M 30.027235,8.8276417 16.640516,16.55225 v 7.244141 l 6.271484,-3.625 V 18.021 l 2.697266,-1.55664 v 5.263672 l -8.96875,5.189453 v 5.08789 l 13.386719,-7.730468 z"
       style="fill:#6545b2;fill-opacity:1" />
  </g>
  <path
     d="m 22.493662,19.351527 c -0.799425,-0.01732 -1.461075,0.61875 -1.4784,1.4223 v 0.01732 c 0.0132,0.807675 0.67485,1.447875 1.4784,1.439625 0.863775,0 1.546875,-0.6402 1.546875,-1.439625 0,-0.80355 -0.6831,-1.439625 -1.546875,-1.439625 z m 5.181825,0 c -0.820874,0 -1.495724,0.636075 -1.495724,1.439625 0,0.7821 0.67485,1.439625 1.495724,1.439625 0.84645,0 1.525425,-0.6402 1.525425,-1.439625 0,-0.80355 -0.678975,-1.439625 -1.525425,-1.439625 z m -16.323449,0.5973 c -0.820875,0 -1.3752755,0.4125 -1.6632005,1.3365 -0.266475,0.941325 -1.9766999,7.50255 -1.9766999,7.50255 l -2.23905,-8.735925 H 2.8000875 c 0,0 2.5698751,9.306825 2.9172001,10.3983 0.266475,0.842325 0.924,1.525425 1.86945,1.525425 1.1088,0 1.62855,-0.80355 1.8521249,-1.525425 0.24915,-0.743325 1.9123495,-6.8838 1.9123495,-6.8838 0,0 1.667326,6.1446 1.8909,6.8838 0.24915,0.721875 0.76065,1.525425 1.852125,1.525425 0.9669,0 1.602975,-0.6831 1.8909,-1.525425 0.34815,-1.08735 2.92215,-10.3983 2.92215,-10.3983 h -2.69445 l -2.221725,8.735925 c 0,0 -1.7061,-6.561225 -1.994025,-7.50255 -0.266475,-0.928125 -0.84645,-1.3365 -1.645875,-1.3365 z m 9.908249,3.6993 v 8.24175 h 2.556675 v -8.24175 z m 5.1645,0 v 8.24175 h 2.548425 v -8.24175 z"
     id="path1008"
     style="fill:#34beed;fill-opacity:0.75;stroke-width:0.825" />
</svg>
