<svg xmlns="http://www.w3.org/2000/svg" width="180.03" height="188.062" viewBox="0 0 47.633 49.758" stroke="#000" stroke-width="1.058" stroke-linejoin="round" xmlns:v="https://vecta.io/nano"><path d="M20.336.529a2.38 2.38 0 0 0-1.16.318l-13.43 7.75a2.38 2.38 0 0 0-.006 4.121l12.301 7.143.006 1.854-1.605.924L4.09 15.584A2.38 2.38 0 0 0 .53 17.658l.037 15.506a2.38 2.38 0 0 0 3.568 2.059l12.316-7.094 1.025.586v1.174l-12.27 7.182a2.38 2.38 0 0 0 .016 4.119l13.445 7.727a2.38 2.38 0 0 0 3.566-2.064l.002-14.23 1.58-.924 1.578.924.002 14.23a2.38 2.38 0 0 0 3.568 2.064l13.443-7.727a2.38 2.38 0 0 0 .018-4.119l-12.271-7.182v-1.174l1.025-.586 12.316 7.094a2.38 2.38 0 0 0 3.57-2.059l.037-15.506a2.38 2.38 0 0 0-3.562-2.074L31.19 22.639l-1.605-.924.006-1.854 12.301-7.143a2.38 2.38 0 0 0-.006-4.121L28.455.848a2.38 2.38 0 0 0-3.572 2.055l-.047 14.213-1.02.592-1.021-.594-.047-14.211A2.38 2.38 0 0 0 20.336.529zm-2.338 6.496l.023 7.318-6.332-3.678zm11.635 0l6.309 3.643-6.332 3.676zM5.301 21.762l6.359 3.631-6.342 3.652zm37.029 0l-.018 7.283-6.342-3.652zm-19.518.857a2.38 2.38 0 0 0 2.006 0l-.002.461a2.38 2.38 0 0 0 1.193 2.072l.4.23a2.38 2.38 0 0 0-1.006 1.727l-.387-.227a2.38 2.38 0 0 0-2.404 0l-.385.227a2.38 2.38 0 0 0-1.006-1.729l.398-.229a2.38 2.38 0 0 0 1.193-2.072zm7.344 12.787l6.32 3.699-6.318 3.631zm-12.682.002l-.002 7.328-6.316-3.631z" fill="#44c2b3"/><path d="M46.789 16.471a2.38 2.38 0 0 0-3.248-.887l-16.756 9.57-.193.111a2.38 2.38 0 0 0-1.199 2.068l.004 19.518a2.38 2.38 0 0 0 2.381 2.381m2.381-6.496l-.004-14.021 12.176-6.953m-37.03 0l12.176 6.953-.004 14.021m4.762 4.115l.004-19.518a2.38 2.38 0 0 0-1.199-2.068l-.193-.111-16.756-9.57a2.38 2.38 0 0 0-3.248.887m4.897-3.752l16.688 9.689.191.111a2.38 2.38 0 0 0 2.393 0l16.879-9.801m-5.949-2.051l-12.125 7.039-12.127-7.041" fill="none" stroke-linecap="round"/></svg>