<?xml version="1.0" encoding="UTF-8" standalone="no"?>
<svg
   version="1.1"
   viewBox="0 0 128 128"
   id="svg59"
   xmlns="http://www.w3.org/2000/svg"
   xmlns:svg="http://www.w3.org/2000/svg">
  <defs
     id="defs63" />
  <path
     d="M 4.2666667,0 V 48 H 0 v 76 h 4.2666667 v 4 H 42.666667 v -4 H 51.2 v 4 h 29.866667 v -4 h 4.266666 v 4 h 25.599997 v -4 h 8.53334 v -4 h 4.26666 v -4 H 128 V 88 h -4.26667 v -4 h -4.26666 v -4 h -8.53334 V 76 H 102.4 v -8 h 4.26667 v 4 h 4.26666 v 4 h 12.8 V 72 H 128 V 60 h -4.26667 v -4 h -4.26666 v -4 h -8.53334 V 48 H 115.2 v -4 h 4.26667 V 32 H 115.2 v -4 h -4.26667 V 24 H 102.4 V 20 H 89.6 v -8 h 12.8 v 8 h 17.06667 V 8 H 115.2 V 4 h -8.53333 V 0 H 85.333333 V 4 H 76.8 V 8 H 72.533333 V 24 H 76.8 v 4 h 8.533333 v 4 h 12.8 v 4 H 102.4 v 4 H 89.6 v -4 h -4.266667 v -4 h -12.8 V 44 H 76.8 v 4 h 4.266667 v 4 H 76.8 V 48 H 68.266667 V 0 H 51.2 v 4 h -4.266667 v 8 h -4.266666 v 8 H 38.4 v 8 H 34.133333 V 20 H 29.866667 V 12 H 25.6 V 4 H 21.333333 V 0 Z M 21.333333,36 H 25.6 v 8 h 4.266667 v 4 h -8.533334 z m 25.6,0 H 51.2 v 12 h -4.266667 v 4 h -4.266666 v -8 h 4.266666 z m -25.6,40 h 8.533334 v 20 h 4.266666 v 4 h -12.8 z M 64,76 h 4.266667 v 4 h 4.266666 v 4 H 76.8 v 4 h 4.266667 v 4 h -8.533334 v 4 h -4.266666 v 4 H 64 Z m 34.133333,20 h 8.533337 v 4 h -8.533337 z"
     id="path37"
     style="stroke-width:0.258199" />
  <path
     d="m 72.533333,116 v 4 H 76.8 v -4 H 72.533333 M 76.8,124 h 4.266667 v -4 H 76.8 v 4 M 85.333333,96 H 89.6 v -4 h -4.266667 v 4 M 51.2,120 v 4 h 4.266667 v -4 H 51.2 m 8.533333,-4 h -4.266666 v 4 h 4.266666 v -4 M 64,120 h 4.266667 v -4 H 64 v 4 m 4.266667,0 v 4 h 4.266666 v -4 H 68.266667 M 64,124 v -4 h -4.266667 v 4 H 64 m 0,-52 h 4.266667 V 68 H 64 v 4 M 42.666667,84 h 4.266666 v -4 h -4.266666 v 4 m 4.266666,4 h -4.266666 v 4 h 4.266666 V 88 M 42.666667,72 v 4 h 4.266666 v -4 h -4.266666 m 42.666666,12 v 4 H 89.6 v -4 h -4.266667 m 0,-12 H 89.6 v -4 h -4.266667 v 4 M 89.6,76 h -4.266667 v 4 H 89.6 V 76 M 72.533333,60 v -4 h -4.266666 v 4 h 4.266666 M 76.8,56 v -4 h -4.266667 v 4 z"
     fill="#000080"
     id="path39"
     style="stroke-width:0.258199" />
  <path
     d="m 72.533333,120 v 4 H 76.8 v -4 H 72.533333 M 51.2,116 v 4 h 4.266667 v -4 H 51.2 m 4.266667,8 h 4.266666 v -4 h -4.266666 v 4 m 12.8,-8 v 4 h 4.266666 v -4 H 68.266667 M 64,120 v -4 h -4.266667 v 4 H 64 v 4 h 4.266667 v -4 H 64 M 46.933333,68 H 51.2 v -4 h -4.266667 v 4 m -4.266666,16 v 4 h 4.266666 v -4 h -4.266666 m 0,-12 h 4.266666 v -4 h -4.266666 v 4 m 4.266666,4 h -4.266666 v 4 h 4.266666 V 76 M 68.266667,64 H 64 v 4 h 4.266667 V 64 M 85.333333,84 H 89.6 v -4 h -4.266667 v 4 M 89.6,88 h -4.266667 v 4 H 89.6 V 88 M 85.333333,72 v 4 H 89.6 v -4 z"
     fill="#800080"
     id="path41"
     style="stroke-width:0.258199" />
  <path
     d="M 93.866667,96 V 92 H 89.6 v 4 h 4.266667 M 38.4,92 h -4.266667 v 4 H 38.4 v -4 m 4.266667,8 V 96 H 38.4 v 4 h 4.266667 M 64,108 h 4.266667 v -4 H 64 v 4 m 4.266667,4 H 64 v 4 h 4.266667 v -4 m -8.533334,-4 v 4 H 64 v -4 h -4.266667 m 0,4 h -4.266666 v 4 h 4.266666 v -4 M 42.666667,88 H 38.4 v 4 h 4.266667 V 88 M 38.4,80 v 4 h 4.266667 V 80 H 38.4 m -4.266667,8 H 38.4 v -4 h -4.266667 v 4 M 38.4,76 h -4.266667 v 4 H 38.4 v -4 m 0,-8 h -4.266667 v 4 H 38.4 v -4 m 4.266667,8 V 72 H 38.4 v 4 h 4.266667 m 0,-12 H 38.4 v 4 h 4.266667 v -4 m 0,-4 v 4 h 4.266666 v -4 h -4.266666 m 25.6,-4 H 64 v 4 h 4.266667 V 56 M 51.2,60 v -4 h -4.266667 v 4 H 51.2 m 8.533333,0 v 4 H 64 V 60 H 59.733333 M 51.2,60 v 4 h 4.266667 V 60 H 51.2 m 4.266667,-4 V 52 H 51.2 v 4 h 4.266667 m 4.266666,-4 v 4 H 64 v -4 h -4.266667 m 0,4 h -4.266666 v 4 h 4.266666 v -4 m 38.4,32 h -4.266666 v 4 h 4.266666 v -4 m 0,-8 h -4.266666 v 4 h 4.266666 v -4 m -4.266666,-4 h 4.266666 v -4 h -4.266666 v 4 M 89.6,76 v 4 h 4.266667 V 76 H 89.6 m 0,8 v 4 h 4.266667 V 84 H 89.6 m 0,-16 v 4 h 4.266667 V 68 H 89.6 M 72.533333,56 v -4 h -4.266666 v 4 z"
     fill="#ff00ff"
     id="path43"
     style="stroke-width:0.258199" />
  <path
     d="M 93.866667,100 V 96 H 89.6 v 4 h 4.266667 m 4.266666,-8 h -4.266666 v 4 h 4.266666 v -4 m -29.866666,20 v 4 h 4.266666 v -4 h -4.266666 m -25.6,-16 V 92 H 38.4 v 4 h 4.266667 M 64,112 h -4.266667 v 4 H 64 v -4 m 0,-4 v 4 h 4.266667 v -4 H 64 m -4.266667,-4 v 4 H 64 v -4 h -4.266667 m -4.266666,8 H 51.2 v 4 h 4.266667 v -4 h 4.266666 v -4 h -4.266666 v 4 M 38.4,80 h 4.266667 V 76 H 38.4 v 4 m 0,4 v 4 h 4.266667 V 84 H 38.4 m 0,4 h -4.266667 v 4 H 38.4 v -4 m 0,-8 h -4.266667 v 4 H 38.4 V 80 M 34.133333,76 H 38.4 v -4 h -4.266667 v 4 m 8.533334,-4 V 68 H 38.4 v 4 h 4.266667 m 4.266666,-8 h -4.266666 v 4 h 4.266666 v -4 m 0,-8 h -4.266666 v 4 h 4.266666 V 56 M 38.4,60 v 4 h 4.266667 V 60 H 38.4 M 64,60 v 4 h 4.266667 V 60 H 64 m 4.266667,-4 V 52 H 64 v 4 h 4.266667 m -8.533334,0 v 4 H 64 v -4 h -4.266667 m -4.266666,4 V 56 H 51.2 v 4 h 4.266667 v 4 h 4.266666 V 60 H 55.466667 M 51.2,64 v -4 h -4.266667 v 4 H 51.2 m 0,-8 v -4 h -4.266667 v 4 H 51.2 m 4.266667,0 h 4.266666 v -4 h -4.266666 v 4 m 38.4,32 H 89.6 v 4 h 4.266667 v -4 h 4.266666 v -4 h -4.266666 v 4 m 4.266666,-12 h -4.266666 v 4 h 4.266666 v -4 m 0,-8 h -4.266666 v 4 h 4.266666 V 68 M 89.6,80 v 4 h 4.266667 V 80 H 89.6 m 0,-8 v 4 h 4.266667 v -4 z"
     fill="#0000ff"
     id="path45"
     style="stroke-width:0.258199" />
  <path
     d="m 106.66667,96 h 4.26666 v -4 h -4.26666 v 4 M 115.2,108 v 4 h -4.26667 v 4 H 89.6 v -4 h -8.533333 v -4 H 76.8 v -8 h -4.266667 v 12 H 76.8 v 4 h 4.266667 v 4 h 4.266666 v 4 h 25.599997 v -4 h 8.53334 v -4 h 4.26666 v -12 h -4.26666 v 4 H 115.2 M 106.66667,88 H 102.4 v 4 h 4.26667 v -4 m 4.26666,-20 v 4 h 12.8 v -8 h -4.26666 v 4 h -8.53334 M 81.066667,80 H 76.8 v 4 h 4.266667 V 80 M 76.8,76 h -4.266667 v 4 H 76.8 v -4 m 34.13333,-12 h -4.26666 v 4 h 4.26666 z"
     fill="#808000"
     id="path47"
     style="stroke-width:0.258199" />
  <path
     d="m 46.933333,112 h -4.266666 v 4 H 8.5333333 v 4 H 4.2666667 v 4 H 42.666667 v -4 h 4.266666 v -8 m 8.533334,-12 H 51.2 v 8 h 4.266667 v -8 h 4.266666 v -4 h -4.266666 v 4 M 38.4,52 v 4 h 4.266667 V 52 H 38.4 m 0,4 h -4.266667 v 4 H 38.4 v -4 m -21.333333,8 v 8 h 12.8 v -4 h 4.266666 v -4 z"
     fill="#800000"
     id="path49"
     style="stroke-width:0.258199" />
  <path
     d="M 17.066667,72 V 64 H 34.133333 V 56 H 38.4 V 52 H 4.2666667 v 68 h 4.2666666 v -4 H 42.666667 v -4 h 4.266666 v -4 H 51.2 v -8 h 4.266667 v -4 h 4.266666 V 68 H 51.2 v 28 h -4.266667 v 4 h -4.266666 v 4 h -25.6 z"
     fill="#ff0000"
     id="path51"
     style="stroke-width:0.258199" />
  <path
     d="M 21.333333,24 V 20 H 17.066667 V 16 H 12.8 v 32 h 4.266667 V 24 h 4.266666 M 25.6,12 h -4.266667 v 4 H 25.6 V 12 M 17.066667,4 v 4 h 4.266666 V 4 h -4.266666 m 38.4,20 V 20 H 51.2 v 4 h 4.266667 M 38.4,36 h -4.266667 v 4 H 38.4 v -4 m -4.266667,-4 v -4 h -4.266666 v 4 h 4.266666 M 29.866667,24 V 20 H 25.6 v 4 h 4.266667 M 64,4 H 59.733333 V 48 H 64 V 4 m 51.2,40 V 32 h -4.26667 V 44 H 115.2 m -4.26667,4 v -4 h -4.26666 v 4 h 4.26666 m 0,-16 v -4 h -4.26666 v 4 h 4.26666 M 102.4,24 h -4.266667 v 4 H 102.4 V 24 M 85.333333,12 H 81.066667 V 24 H 89.6 V 20 H 85.333333 V 12 H 89.6 V 8 h -4.266667 v 4 M 102.4,4 v 4 h 4.26667 V 4 H 102.4 m 12.8,12 V 8 h -4.26667 v 8 z"
     fill="#808080"
     id="path53"
     style="stroke-width:0.258199" />
  <path
     d="m 51.2,4 v 8 h -4.266667 v 8 h -4.266666 v 8 H 38.4 V 40 H 34.133333 V 32 H 29.866667 V 24 H 25.6 V 16 H 21.333333 V 8 H 17.066667 V 4 H 8.5333333 V 48 H 12.8 V 16 h 4.266667 v 4 h 4.266666 v 8 H 25.6 v 8 h 4.266667 v 8 h 4.266666 v 4 H 38.4 v -4 h 4.266667 v -8 h 4.266666 V 28 H 51.2 v -8 h 4.266667 v 28 h 4.266666 V 4 H 51.2 M 85.333333,36 H 76.8 v 8 h 4.266667 v 4 h 25.600003 v -4 h 4.26666 V 32 h -4.26666 v -4 h -8.533337 v 4 H 102.4 v 4 h 4.26667 v 4 H 102.4 v 4 H 85.333333 V 36 M 89.6,24 h -4.266667 v 4 h 12.8 V 24 H 89.6 M 85.333333,12 V 8 H 76.8 v 16 h 4.266667 V 12 h 4.266666 M 102.4,8 v 4 h 4.26667 v 4 h 4.26666 V 8 H 102.4 m 0,0 V 4 H 85.333333 V 8 H 89.6 Z"
     fill="#c0c0c0"
     id="path55"
     style="stroke-width:0.258199" />
  <path
     d="m 102.4,80 v 8 h 4.26667 v 4 h 4.26666 v 8 h -4.26666 v 4 H 89.6 v -4 h -4.266667 v -4 h -12.8 v 4 H 76.8 v 8 h 4.266667 v 4 H 89.6 v 4 h 21.33333 v -4 H 115.2 v -4 h 4.26667 v -4 h 4.26666 V 88 h -4.26666 v -4 h -8.53334 V 80 H 102.4 m 8.53333,-24 V 52 H 81.066667 v 4 H 76.8 v 4 H 72.533333 V 76 H 76.8 v 4 h 4.266667 V 68 h 4.266666 v -4 h 25.599997 v 4 h 8.53334 v -4 h 4.26666 v -4 h -4.26666 v -4 z"
     fill="#ffff00"
     id="path57"
     style="stroke-width:0.258199" />
</svg>
