<?xml version="1.0" encoding="UTF-8"?>
<svg width="128" height="128" version="1.1" viewBox="0 0 33.867 33.867" xmlns="http://www.w3.org/2000/svg">
 <g stroke-width=".41471">
  <path d="m7.7247 16.45q0.12172 0.0375 0.31835 0.103 0.20599 0.0655 0.71161 0.29026 0.51498 0.22472 0.90824 0.47753 0.39326 0.2528 0.71161 0.65542 0.32772 0.39326 0.32772 0.81461 0 0.84271-0.81461 1.4794-0.81461 0.6367-2.1255 0.95506-1.3109 0.31835-2.8839 0.31835-0.57116 0-1.1142-0.0187-0.53371-0.0187-0.98315-0.0562-0.44944-0.0281-0.80524-0.0562-0.34644-0.0281-0.70225-0.0843-0.3558-0.0468-0.53371-0.0749t-0.44944-0.0749q-0.26217-0.046803-0.29026-0.046803v-1.5543q2.5187 0.6648 4.2416 0.6648 1.4232 0 2.3596-0.41199 0.93633-0.41198 0.93633-1.1049 0-1.4888-4.5318-1.4888h-1.1704v-1.3015h1.264q4.0262 0 4.0262-1.3577 0-0.51498-0.86142-0.85207-0.85206-0.34644-2.1161-0.34644-1.0674 0-1.9288 0.14045-0.86142 0.13109-1.9944 0.39326v-1.4232q1.7509-0.31835 4.4008-0.31835 1.1423 0 2.1348 0.13108 1.0019 0.12172 1.8071 0.38389 0.81461 0.25281 1.2828 0.69288 0.47753 0.44008 0.47753 1.0112 0 0.44944-0.27154 0.82398-0.26217 0.37453-0.64607 0.58988-0.3839 0.20599-0.76779 0.3558-0.38389 0.14982-0.64607 0.206l-0.27154 0.0468z" fill="#f00"/>
  <path d="m21.302 12.836q1.0393 0.46817 1.7041 1.1517 0.66479 0.68352 0.91761 1.3858 0.25281 0.69288 0.25281 1.4794 0 1.2266-0.67416 2.2846-0.67416 1.0487-2.2004 1.7416-0.65544 0.29962-1.7884 0.47752-1.1236 0.1779-2.2566 0.1779h-5.618v-9.3633h5.618q1.1236 0 2.2566 0.18726 1.133 0.1779 1.7884 0.47752zm-4.8221 7.4064q2.1067 0 3.3052-0.88016 1.1985-0.88015 1.1985-2.5094 0-1.6386-1.2079-2.5281-1.1985-0.88952-3.2959-0.88952h-1.7978v6.8071z" fill="#b3b3b3"/>
  <path d="m24.644 19.68q0.62734 0.25281 1.7978 0.42135 1.1704 0.1779 2.2191 0.1779 1.0861 0 1.6105-0.32771 0.5337-0.31835 0.5337-0.84271 0-0.4307-0.48689-0.74906-0.48689-0.32772-1.779-0.79589-0.50562-0.18726-0.8146-0.30899-0.30899-0.12172-0.73034-0.29026-0.42134-0.1779-0.67416-0.31835t-0.56179-0.31835q-0.29963-0.18726-0.47753-0.36516-0.16854-0.17791-0.32771-0.39326-0.15918-0.21535-0.23408-0.44944-0.0656-0.24344-0.0656-0.51497 0-1.133 1.3577-1.779 1.3577-0.65542 3.6423-0.65542 0.77716 0 1.367 0.0468 0.58988 0.0374 0.88015 0.0843 0.29026 0.0468 0.96442 0.16854l9e-3 1.442q-0.26217-0.0468-0.92697-0.20599-0.65542-0.15918-1.2079-0.23408-0.54306-0.0843-1.1704-0.0843-1.0487 0-1.5918 0.28089-0.53371 0.2809-0.53371 0.68352 0 0.20599 0.11236 0.38389 0.12172 0.1779 0.31835 0.32772 0.20599 0.14044 0.54307 0.29962 0.33708 0.14981 0.72098 0.29026t0.91761 0.33708q0.0562 0.0187 0.0843 0.0281 0.78652 0.2809 1.3109 0.50562 0.52434 0.21535 1.0206 0.48689 0.49625 0.27153 0.77716 0.55243 0.2809 0.27153 0.44944 0.62734 0.16853 0.3558 0.16853 0.78652-9e-3 1.1704-1.367 1.8633-1.3483 0.69288-4.0637 0.69288-1.9663 0-3.7921-0.29026z" fill="#b3b3b3"/>
 </g>
</svg>
