<?xml version="1.0" encoding="UTF-8"?>
<svg version="1.1" viewBox="0 0 81.663902 22.600378" xmlns="http://www.w3.org/2000/svg">
  <g
     id="layer1"
     transform="translate(-26.318176,-79.329643)">
      <path
         d="m 44.944862,89.647698 q 0.293511,0.09031 0.767645,0.248356 0.496712,0.158045 1.715913,0.699912 1.241779,0.541867 2.190047,1.151468 0.948267,0.6096 1.715913,1.580446 0.790223,0.948267 0.790223,1.964268 0,2.032002 -1.964269,3.567293 -1.964269,1.535289 -5.125161,2.302939 -3.160892,0.76764 -6.953963,0.76764 -1.377245,0 -2.686758,-0.0451 -1.286934,-0.0452 -2.370669,-0.13547 -1.083734,-0.0677 -1.941691,-0.13547 -0.835378,-0.0677 -1.693335,-0.2032 -0.857956,-0.11289 -1.286934,-0.18062 -0.428979,-0.0677 -1.083735,-0.18062 -0.632178,-0.11289 -0.699912,-0.11289 v -3.747916 q 6.073429,1.603023 10.227744,1.603023 3.431826,0 5.689606,-0.993423 2.25778,-0.993423 2.25778,-2.66418 0,-3.589871 -10.927656,-3.589871 h -2.822225 v -3.138314 h 3.048003 q 9.708455,0 9.708455,-3.273781 0,-1.241779 -2.077158,-2.05458 -2.05458,-0.835378 -5.102583,-0.835378 -2.573869,0 -4.651027,0.338667 -2.077158,0.316089 -4.809072,0.948267 v -3.431826 q 4.222049,-0.767645 10.611567,-0.767645 2.754492,0 5.147738,0.316089 2.415825,0.293512 4.357516,0.92569 1.964269,0.609601 3.093159,1.670758 1.151467,1.061156 1.151467,2.438402 0,1.083734 -0.654756,1.986846 -0.632178,0.903113 -1.557868,1.422402 -0.92569,0.496712 -1.85138,0.857956 -0.925689,0.361245 -1.557868,0.496712 l -0.654756,0.112889 z"
         style="fill:#ff0000"
         id="path33726" />
      <path
         d="m 77.682674,80.932667 q 2.506136,1.12889 4.109159,2.77707 1.603024,1.648179 2.212625,3.341514 0.609601,1.670757 0.609601,3.567293 0,2.957692 -1.625602,5.508983 -1.625602,2.528714 -5.305783,4.199473 -1.580446,0.72249 -4.31236,1.15147 -2.709336,0.42897 -5.44125,0.42897 H 54.382383 V 79.329643 h 13.546681 q 2.709336,0 5.44125,0.451556 2.731914,0.428978 4.31236,1.151468 z m -11.627568,17.85904 q 5.080006,0 7.969964,-2.122313 2.889958,-2.122313 2.889958,-6.05085 0,-3.951116 -2.912536,-6.096007 -2.889958,-2.144891 -7.947386,-2.144891 h -4.334937 v 16.414061 z"
         style="fill:#b3b3b3"
         id="path33728" />
      <path
         d="m 85.742947,97.437039 q 1.512712,0.609601 4.334937,1.016001 2.822225,0.428979 5.350939,0.428979 2.619025,0 3.883382,-0.790223 1.286935,-0.767646 1.286935,-2.032002 0,-1.038579 -1.174046,-1.806224 -1.174046,-0.790223 -4.289782,-1.919114 -1.219202,-0.451556 -1.964269,-0.745067 -0.745067,-0.293511 -1.761068,-0.699912 -1.016001,-0.428978 -1.625602,-0.767645 -0.609601,-0.338667 -1.354668,-0.767645 -0.72249,-0.451556 -1.151468,-0.880534 -0.4064,-0.428979 -0.790223,-0.948268 -0.383823,-0.519289 -0.564445,-1.083735 -0.158045,-0.587022 -0.158045,-1.241779 0,-2.731913 3.273782,-4.289782 3.273781,-1.580446 8.782764,-1.580446 1.873957,0 3.29636,0.112889 1.4224,0.09031 2.12231,0.2032 0.69991,0.112889 2.32552,0.406401 l 0.0226,3.476981 q -0.63217,-0.112889 -2.2352,-0.496711 -1.58044,-0.383823 -2.91254,-0.564445 -1.309508,-0.203201 -2.82222,-0.203201 -2.528714,0 -3.838226,0.677334 -1.286935,0.677334 -1.286935,1.64818 0,0.496711 0.270934,0.92569 0.293511,0.428978 0.767645,0.790223 0.496712,0.338667 1.309512,0.722489 0.812801,0.361245 1.738491,0.699912 0.92569,0.338667 2.212624,0.812801 0.135467,0.04516 0.203201,0.06773 1.896534,0.677334 3.160894,1.219202 1.26435,0.519289 2.46098,1.174045 1.19662,0.654756 1.87396,1.33209 0.67733,0.654757 1.08373,1.512713 0.4064,0.857957 0.4064,1.896535 -0.0226,2.822225 -3.29636,4.492986 -3.2512,1.67075 -9.798764,1.67075 -4.741338,0 -9.144009,-0.69991 z"
         style="fill:#b3b3b3"
         id="path33730" />
    </g>
</svg>
