<?xml version="1.0" encoding="UTF-8"?>
<svg version="1.1" viewBox="0 0 240 240" xmlns="http://www.w3.org/2000/svg">
    <g transform="matrix(.63995 0 0 .63995 336.79 73.261)" stroke-width="2.4919">
        <path d="m-297.28 2.8882 10.964-12.46v-84.226l-52.33 20.184-43.359 77.249 43.359-16.696z" fill="#0222a9"/>
        <path d="m-204.33 120.26v-142.04l53.078-20.434v223.52l-53.078 22.427-77.997-101.92v134.81l-56.317 23.673v-230.25l56.317-21.43z" fill="#011da9"/>
        <path d="m-423.12 181.56-49.838-96.686v118.86z" fill="#0222a9"/>
        <g fill="#069330">
            <path d="m-419.88-42.215 24.919 50.835 12.958-4.9838 43.359-77.249-52.33-20.434z"/>
            <path d="m-297.28 2.8882 39.87-45.103 53.078 20.434v142.04l-77.997-111.64z"/>
            <path d="m-338.65 260.3v-230.25l-56.317-21.43v116.87l-78.246-147.27-53.078-20.434v223.52l53.078 22.427v-118.86l78.246 151.76z"/>
        </g>
        <path d="m-472.96-21.782 53.078-20.434 24.919 50.835v116.87z" fill="#fe2015"/>
        <path d="m-282.33 157.39 15.948 22.427 62.048 23.922-77.997-101.92z" fill="#fe2015"/>
        <g fill="#ffc001">
            <path d="m-394.71 8.6196 56.317-21.43 56.317 21.43-56.317 21.43z"/>
            <path d="m-204.33-62.649 53.078 20.434-53.078 20.434-53.078-20.434z"/>
            <path d="m-472.96-62.649 53.078 20.434-53.078 20.434-53.078-20.434z"/>
            <path d="m-338.65-114.23-52.33 20.184 52.33 20.434 52.33-20.184z"/>
        </g>
    </g>
</svg>
