<?xml version="1.0" encoding="UTF-8"?>
<svg width="32" height="32" version="1.1" viewBox="0 0 8.4667 8.4667" xmlns="http://www.w3.org/2000/svg">
 <g transform="matrix(.08916 0 0 .092604 5.6046 3.5345)" fill="#00d4aa" style="shape-inside:url(#rect2036);white-space:pre" aria-label="DS">
  <path d="m-21.579-9.6131c-3.8-1.72-10.96-2.84-17.28-2.84h-24v40h24c6.32 0 13.48-1.08 17.28-2.8 9.28-4.2 12.28-10.84 12.28-17.2 0-6.32-3-13-12.28-17.16zm-20.6 31.64h-7.68v-29.08h7.68c11.8 0 19.24 5.16 19.24 14.6s-7.44 14.48-19.24 14.48z"/>
  <path d="m-7.2994 19.627v6.68c5.04 0.8 9.6 1.24 16.2 1.24 16.08 0 23.16-4.56 23.2-10.92 0-6.16-5.72-9-15.92-12.64-7.36-2.64-11.52-4.08-11.52-7.12 0-2.08 2.68-4.12 9.08-4.12 5.96 0 9.8 1.44 14.12 2.24l-0.04-6.16c-4.4-0.8-6.76-1.28-13.72-1.28-12.92 0-21.36 3.88-21.36 10.4 0 6.28 7.04 9.08 16.6 12.64 7.2 2.6 9.68 4.08 9.68 6.6 0 2.8-2.68 5-9.16 5-5.96 0-13.56-1.12-17.16-2.56z"/>
 </g>
</svg>
