<?xml version="1.0" encoding="UTF-8"?>
<svg width="135" height="135" overflow="visible" version="1.0" viewBox="0 0 615.52 741.91" xml:space="preserve" xmlns="http://www.w3.org/2000/svg">
	<title>PlayStation logo</title>
	<g transform="translate(-61.686 -312.87)" clip-rule="evenodd" fill-rule="evenodd">
		<path d="m397.66 525.57-0.46786 429.18-114.99-37.398v-504.46l146.78 38.806c93.954 25.251 151.45 74.336 150.52 160.36-0.93425 100.05-47.212 140.26-137.43 114.07v-197.3c0-23.845-44.407-25.241-44.407-3.2663z" fill="#de0029"/>
		<path d="m229.37 834.13-54.225 18.238c-35.063 12.159-64.976-16.359-32.722-28.054l26.175-9.3441-98.632-31.331c-30.386 10.29-58.902 32.263-57.028 63.122 1.87 31.32 73.387 38.805 128.55 47.688 51.416 8.4113 98.162 3.7371 140.7-11.224v-32.262zm168.75 120.63 100.5-35.068-101.44-32.255v64.98z" fill="#f3c202"/>
		<path d="m665.51 860.78 1.8685-0.47074c43.941-15.423 62.639-36.938 57.968-57.034-7.4799-33.66-61.237-51.897-143.98-57.977-59.364-4.2049-117.79 8.8821-174.82 28.516l-9.3499 3.2765 102.37 31.791 59.832-20.106c62.639-11.685 87.886 8.8835 27.582 28.054l-29.918 10.28zm-383.31-148.67-45.347 15.423 45.347 14.027z" fill="#326db3"/>
		<path d="m498.63 919.69 166.88-58.902-108.45-33.67-159.87 54.7v5.6172zm-216.43-103.32-52.823 17.766 52.823 16.831zm114.99 27.592v-66.859l102.37 31.791zm-228.59-28.988 113.59-40.675v-32.727l-45.346-14.027-164.54 55.636c-0.46787 0-1.4021 0.46204-2.3364 0.46204z" fill="#00aa9e"/>
	</g>
</svg>
