<?xml version="1.0" encoding="UTF-8"?>
<svg width="40" height="40" version="1.1" viewBox="0 0 10.583 10.583" xmlns="http://www.w3.org/2000/svg">
 <path transform="matrix(.31836 0 0 .31836 18.483 8.9691)" d="m-58.059-15.449h1.1719v1.1719h-1.1719zm1.1719 0h1.1719v1.1719h-1.1719zm1.1719 0h1.1719v1.1719h-1.1719zm1.1719 0h1.1719v1.1719h-1.1719zm1.1719 0h1.1719v1.1719h-1.1719zm1.1719 0h1.1719v1.1719h-1.1719zm1.1719 0h1.1719v1.1719h-1.1719zm1.1719 0h1.1719v1.1719h-1.1719zm1.1719 0h1.1719v1.1719h-1.1719zm0 1.1719h1.1719v1.1719h-1.1719zm0 1.1719h1.1719v1.1719h-1.1719zm-9.375 1.1719h1.1719v1.1719h-1.1719zm1.1719 0h1.1719v1.1719h-1.1719zm1.1719 0h1.1719v1.1719h-1.1719zm1.1719 0h1.1719v1.1719h-1.1719zm1.1719 0h1.1719v1.1719h-1.1719zm1.1719 0h1.1719v1.1719h-1.1719zm1.1719 0h1.1719v1.1719h-1.1719zm1.1719 0h1.1719v1.1719h-1.1719zm1.1719 0h1.1719v1.1719h-1.1719zm-9.375 1.1719h1.1719v1.1719h-1.1719zm0 1.1719h1.1719v1.1719h-1.1719zm0 1.1719h1.1719v1.1719h-1.1719zm16.036-7.0313h1.1719v1.1719h-1.1719zm1.1719 0h1.1719v1.1719h-1.1719zm1.1719 0h1.1719v1.1719h-1.1719zm1.1719 0h1.1719v1.1719h-1.1719zm1.1719 0h1.1719v1.1719h-1.1719zm-4.6875 1.1719h1.1719v1.1719h-1.1719zm0 1.1719h1.1719v1.1719h-1.1719zm0 1.1719h1.1719v1.1719h-1.1719zm0 1.1719h1.1719v1.1719h-1.1719zm0 1.1719h1.1719v1.1719h-1.1719zm-4.6875 1.1719h1.1719v1.1719h-1.1719zm1.1719 0h1.1719v1.1719h-1.1719zm1.1719 0h1.1719v1.1719h-1.1719zm1.1719 0h1.1719v1.1719h-1.1719zm1.1719 0h1.1719v1.1719h-1.1719zm6.6609-7.0313h1.1719v1.1719h-1.1719zm1.1719 0h1.1719v1.1719h-1.1719zm1.1719 0h1.1719v1.1719h-1.1719zm1.1719 0h1.1719v1.1719h-1.1719zm1.1719 0h1.1719v1.1719h-1.1719zm1.1719 0h1.1719v1.1719h-1.1719zm1.1719 0h1.1719v1.1719h-1.1719zm1.1719 0h1.1719v1.1719h-1.1719zm1.1719 0h1.1719v1.1719h-1.1719zm0 1.1719h1.1719v1.1719h-1.1719zm0 1.1719h1.1719v1.1719h-1.1719zm-9.375 1.1719h1.1719v1.1719h-1.1719zm1.1719 0h1.1719v1.1719h-1.1719zm1.1719 0h1.1719v1.1719h-1.1719zm1.1719 0h1.1719v1.1719h-1.1719zm1.1719 0h1.1719v1.1719h-1.1719zm1.1719 0h1.1719v1.1719h-1.1719zm1.1719 0h1.1719v1.1719h-1.1719zm1.1719 0h1.1719v1.1719h-1.1719zm1.1719 0h1.1719v1.1719h-1.1719zm-9.375 1.1719h1.1719v1.1719h-1.1719zm0 1.1719h1.1719v1.1719h-1.1719zm0 1.1719h1.1719v1.1719h-1.1719z" fill="#19c6c6" aria-label="PSP"/>
</svg>
