<?xml version="1.0" encoding="UTF-8"?>
<svg width="128" height="128" version="1.1" viewBox="0 0 33.867 33.867" xmlns="http://www.w3.org/2000/svg" xmlns:xlink="http://www.w3.org/1999/xlink">
 <defs>
  <clipPath id="SVGID_00000083058477662341932100000014656964928652289977_">
   <use xlink:href="#SVGID_00000047757432968032457270000016806470745178228124_"/>
  </clipPath>
  <path id="SVGID_00000047757432968032457270000016806470745178228124_" d="m1699.2 567.6c0-72.5-14.1-143-42.2-209.1-10.3-24.2-22.2-47.5-35.7-69.8-22.3-36.6-996.7 206.3-996.7 278.9s14.1 143 42.2 209.1c12.9 30.5 28.5 59.5 46.6 86.9 19.8 30 985.8-223.5 985.8-296z"/>
 </defs>
 <g transform="matrix(.01501 0 0 .01501 .0003527 0)">
  <path class="st0" d="m1161.9 1120c-74.5 0-146.9-14.6-215-43.4-65.9-27.8-125-67.7-175.6-118.5-50.6-50.6-90.5-109.7-118.4-175.6-28.8-67.9-43.4-140.3-43.4-215 0-74.5 14.6-146.9 43.4-215 28-65.9 67.8-125 118.4-175.6 50.8-50.8 109.9-90.7 175.6-118.4 68.3-28.8 140.6-43.4 215-43.4 74.5 0 146.9 14.6 215 43.4 65.9 27.8 125 67.7 175.6 118.5 50.6 50.6 90.5 109.7 118.4 175.6 28.8 67.9 43.4 140.3 43.4 215 0 74.5-14.6 146.9-43.4 215-27.8 65.9-67.7 125-118.5 175.6-50.6 50.6-109.7 90.5-175.6 118.4-67.8 28.8-140.1 43.4-214.9 43.4z" fill="#fff"/>
  <path d="m1161.9 30.3c72.5 0 143 14.2 209.1 42.2 64 27 121.5 65.8 170.8 115.2 49.3 49.3 88.1 106.8 115.2 170.8 28 66.2 42.2 136.6 42.2 209.1s-14.2 143-42.2 209.1c-27 64-65.8 121.5-115.2 170.8-49.3 49.3-106.8 88.1-170.8 115.2-66.2 28-136.6 42.2-209.1 42.2s-143-14.2-209.1-42.2c-64-27-121.5-65.8-170.8-115.2-49.3-49.3-88.1-106.8-115.2-170.8-28-66.2-42.2-136.6-42.2-209.1s14.2-143 42.2-209.1c27.1-64 65.9-121.5 115.2-170.8 49.4-49.4 106.8-88.2 170.8-115.2 66.2-28 136.6-42.2 209.1-42.2m0-30.3c-76.5 0-150.8 15-220.9 44.5-67.5 28.6-128.2 69.5-180.4 121.7-52 52-93 112.7-121.7 180.4-29.6 70-44.6 144.3-44.6 220.9 0 76.8 15 151.2 44.6 220.9 28.7 67.7 69.6 128.4 121.7 180.4 52 52.1 112.7 93.1 180.4 121.7 70 29.6 144.3 44.6 220.9 44.6 76.8 0 151.2-15 220.9-44.6 67.7-28.7 128.4-69.6 180.4-121.7 52.1-52 93.1-112.7 121.7-180.4 29.6-70 44.6-144.3 44.6-220.9 0-76.8-15-151.2-44.6-220.9-28.7-67.7-69.6-128.4-121.7-180.4-52-52.1-112.7-93.1-180.4-121.7-70-29.5-144.3-44.5-220.9-44.5z"/>
 </g>
 <g transform="matrix(.01501 0 0 .01501 .0003527 0)">
  <path d="m591.3 797.1c24.4-5.6 49.8-12 76.1-19-0.2-0.4-0.4-0.9-0.6-1.3-19.4-45.7-32.1-93.5-38.1-142.6-8.1 2.2-16.1 4.4-24 6.5-112.2 30.2-173.9 37.8-206.4 35-21.6-1.9-26.7-21.9-20.4-34 2.2-4.5 5.1-9.2 8.6-14.3 37.2-53.4 125.5-113.5 250-172.6 7-32.8 17.1-65 30.3-96.2 15.3-36.1 34.4-70.2 56.9-101.9-183 71.3-376.8 169.6-458.4 286.8-56.6 81.5-46.7 151.5-28.3 195.7 46.5 112.2 205.1 92.2 354.3 57.9z"/>
  <path d="m1541.8 187.6c2 2 4.1 4.1 6.1 6.2 110.4-15.6 209.3-22.7 287-19.7 41 1.6 75.4-30.2 77-71.2s-30.2-75.4-71.2-77c-120.9-4.6-287.2 12.7-468.1 47.1 63.3 27.1 120.3 65.6 169.2 114.6z"/>
  <path d="m2080.4 421.2c-7-43.9-30.8-79.2-69-102.1-73.2-44.3-196.4-37.7-371.2 3.4 6 11.7 11.6 23.7 16.8 36 14.4 34 25.1 69.2 32.2 105.1 132-29.9 195.1-29.1 224.2-24.3 14.3 2.5 22.9 17.2 18.1 30.8-7 20-22.9 39.7-33.7 51.8-42.8 47.9-114.7 97.9-208.1 146.3-7 37.1-18 73.3-32.8 108.4-13.8 32.7-30.7 63.6-50.4 92.7 183.7-76.6 324.2-163.1 401-248.8 59.2-65.8 83.7-132.8 72.9-199.3z"/>
  <path d="m782 947.5c-4.6-4.6-9.1-9.3-13.5-14-114 13.1-221.3 17.8-315.2 13-41.3-2.2-76.3 29.9-77.9 71.2-1.6 41 30.8 75 71.5 77 27 1.3 54.7 1.9 83 1.9 126.2 0 266.8-13.2 412.9-38.2-60-26.8-114.1-64.1-160.8-110.9z"/>
 </g>
 <g transform="matrix(.01501 0 0 .01501 .0003527 0)">
  <path d="m1009.9 1757.2h-257.8c-21.4 0-38.7 17.4-38.7 38.7s17.4 38.7 38.7 38.7h90.1v278.1c0 21.4 17.4 38.7 38.7 38.7 21.4 0 38.7-17.4 38.7-38.7v-278.1h90.1c21.4 0 38.7-17.4 38.7-38.7 0.2-21.4-17.1-38.7-38.5-38.7z"/>
  <path d="m672.3 1816.3c-20.1-41-59-76.6-101.6-76.6s-81.5 35.6-101.6 76.6c-34.9 71.2-67.9 163.5-101 282.3-5.9 20.9 6.4 42.6 27.3 48.4 3.5 1 7.1 1.4 10.6 1.4 17.2 0 33-11.4 37.8-28.8 7.3-26.2 14.6-50.9 21.9-74.5h210c7.3 23.5 14.5 48.3 21.9 74.5 5.9 20.9 27.5 33.1 48.4 27.3 20.9-5.9 33.1-27.5 27.3-48.4-33-118.8-66.1-211.1-101-282.2zm-180.9 151.3c15.9-44.6 32-83.3 48.3-116.8 7-14.2 18.3-32.5 31-32.5s24 18.3 31 32.5c16.3 33.4 32.4 72.1 48.3 116.8z"/>
  <path d="m363.8 2023c-5-63.1-56.1-110.9-117.2-110.9-1.3 0-2.5 0-3.8 0.1h-35.4-0.7l-85.9-0.1h-1.6c-21.5 0.8-39.6-16.4-41.6-39.3-1.2-17.9 7.6-35.7 18.8-38.2l2.2-0.6c50.4-14.4 158.3-10.6 196 3 20.2 7.3 42.4-3.2 49.6-23.3 7.3-20.2-3.2-42.4-23.3-49.6-55.6-20-179.8-22.5-242.6-4.9-48.5 11.6-82 62.6-78 119.2v0.3c5 63.1 56.1 110.9 117.2 110.9 1.3 0 2.5 0 3.8-0.1h35.4 0.7l85.9 0.1h1.6c21.5-0.9 39.5 16.4 41.6 39.3 1.2 17.9-7.6 35.7-18.8 38.2l-2.2 0.6c-50.4 14.4-158.3 10.6-196-3-20.2-7.3-42.4 3.2-49.6 23.3-7.3 20.2 3.2 42.4 23.3 49.6 30.6 11 81.7 16.6 132.1 16.6 41.4 0 82.2-3.8 110.6-11.8 48.5-11.6 82-62.6 78-119.2z"/>
  <path d="m1411.3 1740.5c-21.1 0-38.1 17-38.1 38.1v235.7c0 36.4-51.9 68.4-111.1 68.4-59.1 0-111.1-32-111.1-68.4v-235.7c0-21.1-17-38.1-38.1-38.1s-38.1 17-38.1 38.1v235.7c0 40.5 21.7 79.3 59.6 106.3 34.6 24.7 79.9 38.3 127.6 38.3s93-13.6 127.6-38.3c37.9-27 59.6-65.8 59.6-106.3v-235.7c0.2-21-16.9-38.1-37.9-38.1z"/>
  <path d="m1757.4 2000.4c-2.6-2.4-1-6.9 2.5-7.1 70.8-4.4 91.9-57.6 95.5-102.6v-0.3c2.3-32-10.2-66-33.4-90.9-18-19.3-50.9-42.4-105.9-42.4-40.9 0-86.8 0.7-125.8 1.9-64.3 2-68.8 3.6-74.8 5.9-15.3 5.5-25.6 20-25.6 36.3v309.5c0 22 18.4 39.7 40.7 38.7 20.9-1 36.9-19 36.9-39.8v-272.2c33.9-1.4 90.3-2.7 148.7-2.7 21.8 0 38.3 6 49.2 17.7 11 11.8 13.2 25.8 12.7 32.4-0.9 11.9-4.1 47.2-67.5 47.2h-33.3c-17 0-33 9.7-39.7 25.2-7.3 16.5-3.3 35.5 9.8 47.8l145.9 136.8c7.5 7.1 17 10.5 26.5 10.5 10.3 0 20.7-4.1 28.2-12.2 14.6-15.6 13.8-40.2-1.8-54.8z"/>
  <path d="m2218.2 1757.8c-21.1 0-38.2 17-38.2 38.2v217.3l-218.3-242.8c-10.6-11.8-27.3-15.7-42.1-10.1s-24.5 19.9-24.5 35.6v316.9c0 21.1 17 38.2 38.2 38.2 21.1 0 38.2-17 38.2-38.2v-217.3l218.3 242.8c7.4 8.2 17.8 12.6 28.4 12.6 4.5 0 9.2-0.8 13.6-2.5 14.7-5.6 24.5-19.9 24.5-35.6v-316.9c0.1-21.2-17-38.2-38.1-38.2z"/>
  <path d="m1799.4 1343.4c-20.1-41-59-76.6-101.6-76.6s-81.5 35.6-101.6 76.6c-34.9 71.2-67.9 163.5-101 282.3-5.9 20.9 6.4 42.6 27.3 48.4 3.5 1 7.1 1.4 10.6 1.4 17.2 0 33-11.4 37.8-28.8 7.3-26.2 14.6-50.9 21.9-74.5h210c7.3 23.5 14.5 48.3 21.9 74.5 5.9 20.9 27.5 33.1 48.4 27.3 20.9-5.9 33.1-27.5 27.3-48.4-33-118.7-66.1-211.1-101-282.2zm-180.9 151.3c15.9-44.6 32-83.3 48.3-116.8 7-14.2 18.3-32.5 31-32.5s24 18.3 31 32.5c16.3 33.4 32.4 72.1 48.3 116.8z"/>
  <path d="m1485 1490.8c0-1-0.1-2.1-0.2-3.1 0-0.3-0.1-0.5-0.1-0.8-0.1-1-0.3-2-0.5-3 0-0.3-0.1-0.5-0.2-0.7-0.2-1-0.5-2-0.8-2.9-0.1-0.3-0.2-0.5-0.2-0.7-0.3-0.9-0.6-1.9-1-2.8-0.1-0.3-0.2-0.5-0.3-0.8-0.4-0.9-0.8-1.8-1.3-2.6-0.1-0.3-0.3-0.5-0.4-0.7l-1.5-2.4c-0.2-0.2-0.3-0.5-0.5-0.7-0.5-0.8-1.1-1.5-1.7-2.3-0.2-0.2-0.4-0.4-0.6-0.7-0.6-0.7-1.2-1.4-1.9-2.1l-0.6-0.6c-0.7-0.6-1.3-1.3-2.1-1.9-0.2-0.2-0.5-0.4-0.7-0.6-0.7-0.6-1.4-1.1-2.2-1.6-0.3-0.2-0.5-0.4-0.8-0.5-0.8-0.5-1.5-1-2.3-1.4-0.3-0.2-0.6-0.3-0.9-0.5-0.8-0.4-1.6-0.8-2.4-1.1-0.4-0.2-0.7-0.3-1.1-0.5l-2.4-0.9c-0.4-0.1-0.9-0.3-1.3-0.4-0.8-0.2-1.5-0.4-2.3-0.6l-1.5-0.3c-0.8-0.1-1.5-0.3-2.3-0.4-0.5-0.1-1.1-0.1-1.6-0.1s-1-0.1-1.5-0.1h-0.8-0.6-146.7c-21.4 0-38.7 17.4-38.7 38.7 0 21.4 17.4 38.7 38.7 38.7h102.7c-17.8 72-75.1 84-115 84-79.2 0-134.5-59.9-134.5-145.7 0-62.5 64.1-119.5 134.5-119.5 43.1 0 75.1 9.8 110.3 33.7 17.8 12 41.8 7.5 53.9-10.3 12-17.7 7.5-41.8-10.3-53.9-47.9-32.6-95.4-47.1-153.8-47.1-54.9 0-107.5 20.8-148.2 58.4-40.6 37.5-63.8 88.1-63.8 138.7 0 65.1 21.7 121.3 62.6 162.5 38.8 39.1 91.9 60.6 149.3 60.6 54 0 101.4-15.5 137.3-45 29.8-24.4 57.5-70.9 60.4-153.8v-1.1-0.3c0-0.4-0.1-0.6-0.1-0.8z"/>
  <path d="m1037.2 1601.2h-182.1v-87.6h127.4c21.4 0 38.7-17.4 38.7-38.7 0-21.4-17.4-38.7-38.7-38.7h-127.4v-74.2h182.1c21.4 0 38.7-17.4 38.7-38.7 0-21.4-17.4-38.7-38.7-38.7h-220.8c-21.4 0-38.7 17.4-38.7 38.7v316.9c0 21.4 17.4 38.7 38.7 38.7h220.8c21.4 0 38.7-17.4 38.7-38.7 0-21.6-17.3-39-38.7-39z"/>
  <path d="m744.2 1550.1c-5-63.1-56.1-110.9-117.2-110.9-1.3 0-2.5 0-3.8 0.1h-35.4-0.7l-85.9-0.1h-1.6c-21.5 0.8-39.6-16.4-41.6-39.3-1.2-17.9 7.6-35.7 18.8-38.2l2.2-0.6c50.4-14.4 158.3-10.6 196 3 20.2 7.3 42.4-3.2 49.6-23.3 7.3-20.2-3.2-42.4-23.3-49.6-55.6-20-179.8-22.5-242.6-4.9-48.5 11.6-82 62.6-78 119.2v0.3c5 63.1 56.1 110.9 117.2 110.9 1.3 0 2.5 0 3.8-0.1h35.4 0.7l85.9 0.1h1.6c21.5-0.9 39.5 16.4 41.6 39.3 1.2 17.9-7.6 35.7-18.8 38.2l-2.2 0.6c-50.4 14.4-158.3 10.6-196-3-20.2-7.3-42.4 3.2-49.6 23.3-7.3 20.2 3.2 42.4 23.3 49.6 30.6 11 81.7 16.6 132.1 16.6 41.4 0 82.2-3.8 110.6-11.8 48.5-11.6 82-62.6 78-119.2v-0.2z"/>
 </g>
 <g transform="matrix(.01501 0 0 .01501 .0003527 0)">
  <clipPath>
   <use xlink:href="#SVGID_00000047757432968032457270000016806470745178228124_"/>
  </clipPath>
  <path d="m529.9 1096.6c-28.3 0-56-0.6-83-1.9-40.7-1.9-73.1-35.9-71.5-77 1.6-41.3 36.6-73.5 77.9-71.2 231.5 11.8 545-34 838.8-122.1 287.1-86.5 513.5-199.4 605.8-302.4 10.8-12.1 26.7-31.8 33.7-51.8 4.8-13.7-3.8-28.3-18.1-30.8-30.8-5.1-99.8-5.7-248.3 29.9-157.7 37.8-353.9 103-543.4 166.3-196.6 65.4-382 127.1-530.5 161.5-149.1 34.3-307.8 54.4-354.2-57.9-18.5-44.2-28.4-114.2 28.2-195.9 122.4-175.8 497.3-309.1 709.7-372.7 318.6-96 658.5-152.6 865.5-144.7 41 1.6 72.8 35.9 71.2 77-1.6 41-35.9 72.8-77 71.2-192.1-7.3-512.9 46.7-817.9 138-320.5 96-562.2 216.9-630.6 315.1-3.5 5.1-6.4 9.9-8.6 14.3-6.4 12.1-1.3 32.1 20.4 34 32.4 2.9 94.1-4.8 206.4-35 134.8-35.9 297.3-88.7 469.7-146.3 492.2-164.1 801-257.6 937.1-175.2 38.2 22.9 62 58.2 69 102.1 10.8 66.5-13.7 133.6-72.8 199.4-111.3 124.3-356.8 250.3-673.5 345.3-279.3 84.4-567.1 130.8-804 130.8z" clip-path="url(#SVGID_00000083058477662341932100000014656964928652289977_)"/>
 </g>
</svg>
