<?xml version="1.0" encoding="UTF-8"?>
<svg version="1.1" viewBox="0 0 240 240" xmlns="http://www.w3.org/2000/svg">
    <g transform="matrix(.37003 0 0 .37003 -188.36 337.9)" fill="#e60012">
        <path d="m649.27-908.73c-64.133 11.467-115.73 58.933-132 121.33-5.8667 22.533-6.2667 35.733-5.6 210.53 0.4 160.53 0.53333 164.27 3.2 176.67 14.8 66.8 62.267 114.4 129.73 130.13 8.8 2 20 2.4 92.133 2.8 74.667 0.53333 82.4 0.4 84.4-1.6s2.1333-27.733 2.1333-319.47c0-216.27-0.4-318.13-1.3333-320-1.3333-2.4-3.6-2.5333-81.733-2.4-63.467 0.13334-82.533 0.53334-90.933 2zm120.67 320v270.13l-54.267-0.66666c-50-0.53334-55.333-0.8-65.333-3.3333-42.933-11.067-74.8-44.133-83.733-87.2-2.9333-13.467-2.9333-345.2-0.13333-358.4 8-37.467 34-68.533 69.067-82.533 17.6-7.0667 25.733-7.8667 82.8-8l51.6-0.13333z"/>
        <path d="m660.74-777.4c-8.4 1.6-21.2 8-28 14-14 12.133-20.933 29.333-19.867 49.6 0.53334 10.533 1.2 13.333 5.4667 21.867 6.2667 12.933 15.733 22.4 28.667 28.8 8.9333 4.4 11.2 4.9333 22.8 5.3333 10.533 0.4 14.267 0 21.333-2.4 28.933-9.7333 46.4-37.867 41.467-66.667-5.7333-34.267-38.267-57.2-71.867-50.533z"/>
        <path d="m888.21-909.93c-0.53333 0.4-0.93333 144.93-0.93333 321.2 0 290.8 0.13333 320.27 2.1333 321.07 3.6 1.3333 107.07 0.8 119.87-0.53334 54.133-6.1333 101.87-39.067 127.87-88 3.3333-6.2667 7.7333-16.8 10-23.333 8.4-25.067 8.1333-18.4 8.1333-210 0-152.93-0.2666-175.73-2.1333-185.47-13.2-69.467-66.133-121.87-135.73-133.87-9.3334-1.6-23.733-2-70.133-2-32 0-58.667 0.4-59.067 0.93333zm142.4 290.4c20.8 5.4667 37.867 21.333 44.8 41.6 4.4 12.533 4.2666 30.933-0.1334 42.4-8.1333 21.067-24.133 35.867-44.667 41.333-33.333 8.6667-68.8-11.467-78.533-44.533-2.9333-10.133-2.8-27.2 0.53333-37.6 10-32.667 44.667-51.867 78-43.2z"/>
    </g>
</svg>
