<?xml version="1.0" encoding="UTF-8"?>
<svg width="240" height="240" version="1.1" viewBox="0 0 63.5 63.5" xmlns="http://www.w3.org/2000/svg">
    <g>
        <circle cx="31.609" cy="31.609" r="31" fill="#8555a0" stroke-width="1.0583"/>
        <g fill="#c089fe" stroke-width="1.137" aria-label="?">
            <path d="m28.567 42.687h6.0941v5.6848h-6.0941zm-7.231-16.463q0-2.5013 0.72765-4.5478 0.77313-2.0465 2.1829-3.5018 1.4553-1.4553 3.4563-2.2284 2.0465-0.81861 4.5478-0.81861 2.092 0 3.8656 0.63669 1.8191 0.59122 3.138 1.7736 1.3643 1.137 2.1375 2.8651 0.77313 1.7282 0.77313 3.9111 0 1.5917-0.36382 2.7742-0.31835 1.137-0.90956 2.001-0.54574 0.81861-1.2734 1.5008-0.72765 0.63669-1.4553 1.2734-0.86408 0.72765-1.5917 1.4098-0.72765 0.68217-1.2734 1.5463-0.54574 0.81861-0.86408 1.9556-0.27287 1.137-0.27287 2.7742h-4.9116q0-2.001 0.18191-3.3654 0.22739-1.4098 0.68217-2.4558 0.45478-1.046 1.0915-1.8191 0.68217-0.81861 1.5917-1.5917 0.72765-0.63669 1.3643-1.1824 0.68217-0.54574 1.1824-1.1824 0.54574-0.68217 0.81861-1.5008 0.31835-0.81861 0.31835-1.9556 0-1.3643-0.50026-2.3194-0.45478-1.0005-1.137-1.5917-0.68217-0.59122-1.4553-0.86408-0.77313-0.27287-1.3643-0.27287-2.8196 0-4.184 1.8646-1.3189 1.8191-1.3189 4.9116z" fill="#c089fe"/>
        </g>
    </g>
</svg>
