<?xml version="1.0" encoding="UTF-8" standalone="no"?>
<!-- Created with Inkscape (http://www.inkscape.org/) -->

<svg
   width="128"
   height="128"
   version="1.1"
   viewBox="0 0 128 128"
   id="svg204"
   xmlns="http://www.w3.org/2000/svg"
   xmlns:svg="http://www.w3.org/2000/svg">
  <defs
     id="defs208" />
  <g
     transform="matrix(0.11855322,0,0,0.11855322,-0.00447937,17.291838)"
     id="g202">
    <g
       transform="matrix(31.718,0,0,31.718,-4221,-5611.6)"
       id="g200">
      <path
         d="m 147.45,199.64 3.2812,-8.125 c 1.5625,-0.0859 4.0977,0.26563 5.668,0.64453 l -3.375,8.3594 c -1.5312,-0.37891 -4.043,-0.83985 -5.5742,-0.87891"
         fill="#3d87cf"
         id="path106" />
      <path
         d="m 162.2,195.43 -3.4102,8.3984 c -1.1406,-0.9375 -4.2656,-2.7188 -5.7656,-3.3086 l 3.375,-8.3594 c 1.5273,0.54297 4.7891,2.1797 5.8008,3.2695"
         fill="#fac705"
         id="path108" />
      <path
         d="m 165.54,187.65 -3.3477,7.7812 c -1.0938,-1 -4.2578,-2.707 -5.8008,-3.2695 l 3.3828,-8.375 c 1.543,0.51563 4.7617,2.7188 5.7656,3.8633"
         fill="#66c557"
         id="path110" />
      <path
         d="m 150.73,191.52 3.3281,-8.2227 c 1.5586,-0.0547 4.1562,0.19141 5.7226,0.49219 l -3.3828,8.375 c -1.5508,-0.42578 -4.1172,-0.67578 -5.668,-0.64453"
         fill="#f3632e"
         id="path112" />
      <path
         d="m 139.46,194.54 -1.6055,-0.0273 c 0.10937,-0.32422 0.25,-0.6875 0.38672,-0.99219 l 1.6211,-0.004 c -0.11719,0.33204 -0.25781,0.69141 -0.40234,1.0234"
         fill="#3d87cf"
         id="path114" />
      <path
         d="m 141.94,195.88 -2.0234,-0.0117 0.56641,-1.375 c 0.66797,-0.004 1.3438,0 2.0156,0.0234 l -0.55859,1.3633"
         fill="#3d87cf"
         id="path116" />
      <path
         d="m 145.3,195.54 c -0.23437,0.53906 -0.43359,1.1172 -0.67578,1.6602 l -2.2773,-0.0273 0.67187,-1.6484 2.2812,0.0156"
         fill="#3d87cf"
         id="path118" />
      <path
         d="m 137.3,192.89 -1.168,-0.008 c 0.0937,-0.26953 0.21094,-0.57031 0.33203,-0.83985 0.39844,-0.004 0.79688,-0.0273 1.1953,-0.0117 l -0.35938,0.85937"
         fill="#3d87cf"
         id="path120" />
      <path
         d="m 135.19,191.18 c -0.30078,0.008 -0.60547,0.0391 -0.90625,0.0312 l 0.29297,-0.71093 c 0.30078,-0.0156 0.60156,-0.0312 0.90234,-0.0312 L 135.19,191.18"
         fill="#3d87cf"
         id="path122" />
      <path
         d="m 140.52,191.9 -1.6094,-0.0195 0.38671,-0.98828 c 0.54688,0.0156 1.0938,-0.0156 1.6367,0.004 l -0.41406,1.0039"
         fill="#3d87cf"
         id="path124" />
      <path
         d="m 142.99,193.26 -2.0078,-0.008 0.54297,-1.3672 c 0.67578,-0.004 1.3516,-0.008 2.0274,0.008 l -0.5625,1.3672"
         fill="#3d87cf"
         id="path126" />
      <path
         d="m 145.7,194.55 -2.2852,-0.0508 0.66406,-1.6211 2.2774,0.0234 -0.65625,1.6484"
         fill="#3d87cf"
         id="path128" />
      <path
         d="m 138.41,190.16 c -0.39063,-0.0117 -0.79297,0.0195 -1.1875,-0.004 l 0.35937,-0.88672 1.1641,0.0312 c -0.0859,0.27734 -0.20703,0.58203 -0.33594,0.85938"
         fill="#3d87cf"
         id="path130" />
      <path
         d="m 136.29,188.46 -0.90235,0.0195 0.27735,-0.70703 c 0.29297,-0.0273 0.60937,-0.0273 0.91406,-0.0273 l -0.28906,0.71484"
         fill="#3d87cf"
         id="path132" />
      <path
         d="m 142.71,186.48 -1.6133,-0.0117 0.39453,-1.0078 c 0.54297,0.008 1.0859,0 1.6328,0.0117 l -0.41406,1.0078"
         fill="#f3632e"
         id="path134" />
      <path
         d="m 143.18,187.84 0.54297,-1.3828 h 2.0117 L 145.1917,187.84 H 143.18"
         fill="#f3632e"
         id="path136" />
      <path
         d="m 147.92,189.04 -2.2852,-0.0156 0.66015,-1.6445 2.2812,0.008 -0.65625,1.6523"
         fill="#f3632e"
         id="path138" />
      <path
         d="m 140.61,184.72 c -0.38281,0.0195 -0.78515,0 -1.1758,0.008 l 0.32813,-0.875 c 0.38281,-0.0312 0.78906,0.0156 1.1758,0.004 l -0.32813,0.86328"
         fill="#f3632e"
         id="path140" />
      <path
         d="m 138.48,183.01 c -0.30078,0.008 -0.60156,0.0391 -0.90625,0.0273 l 0.29688,-0.71094 0.89453,-0.043 -0.28516,0.72656"
         fill="#f3632e"
         id="path142" />
      <path
         d="m 143.8,183.78 c -0.53906,0 -1.0781,-0.008 -1.6172,-0.0312 l 0.39844,-0.98828 c 0.54297,0.008 1.0859,-0.0117 1.6289,0.004 l -0.41016,1.0156"
         fill="#f3632e"
         id="path144" />
      <path
         d="m 146.27,185.14 c -0.67187,0 -1.3477,0.0117 -2.0234,-0.008 l 0.5625,-1.375 c 0.67578,-0.008 1.3477,0.004 2.0234,0.008 l -0.5625,1.375"
         fill="#f3632e"
         id="path146" />
      <path
         d="m 148.96,186.45 -2.2695,-0.0234 0.66016,-1.6524 2.2852,0.0156 -0.67578,1.6602"
         fill="#f3632e"
         id="path148" />
      <path
         d="m 141.69,182.02 h -1.1797 l 0.34765,-0.88672 c 0.39844,0.0195 0.78907,0 1.1836,0.0234 l -0.35156,0.86328"
         fill="#f3632e"
         id="path150" />
      <path
         d="m 139.58,180.3 -0.90625,0.0391 0.28125,-0.71484 c 0.30078,-0.0352 0.60547,-0.0195 0.90625,-0.0391 l -0.28125,0.71485"
         fill="#f3632e"
         id="path152" />
      <path
         d="m 138.44,197.3 c -0.63672,0.008 -1.2773,0.004 -1.918,-0.0156 l 0.45703,-1.1328 c 0.64063,0 1.2852,0.0195 1.9336,0.0117 l -0.47266,1.1367"
         id="path154" />
      <path
         d="m 153.11,184.74 -2.8711,0.0195 1.0078,-2.5039 c 0.97656,-0.10938 1.9609,-0.21485 2.9414,-0.1836 l -1.0781,2.668"
         id="path156" />
      <path
         d="m 140.71,177.73 -1.0898,0.0234 0.31641,-0.8086 c 0.36718,-0.008 0.73437,-0.0234 1.1016,-0.0234 l -0.32813,0.8086"
         id="path158" />
      <path
         d="m 142.88,179.33 c -0.48438,-0.0156 -0.96875,-0.0117 -1.457,-0.0312 l 0.38281,-0.9375 c 0.48828,0.0156 0.97656,-0.008 1.4648,0.0234 l -0.39062,0.94531"
         id="path160" />
      <path
         d="m 150.19,183.86 -2.7148,-0.0117 0.78906,-1.9727 2.7188,0.0234 -0.79297,1.9609"
         id="path162" />
      <path
         d="m 145.1,182.48 0.58985,-1.4922 2.3945,0.004 -0.60157,1.5039 -2.3828,-0.0156"
         id="path164" />
      <path
         d="m 144.98,181.11 -1.9219,-0.0156 0.44532,-1.125 c 0.64062,0 1.2852,-0.0234 1.9336,0 l -0.45703,1.1406"
         id="path166" />
      <path
         d="m 152.06,187.35 c -0.95703,0.0234 -1.918,0.0391 -2.8789,0.043 l 0.9375,-2.3164 2.8633,-0.0117 -0.92187,2.2852"
         id="path168" />
      <path
         d="m 150.98,190.01 -2.8711,0.0391 -0.0156,-0.008 0.92968,-2.3164 2.8945,-0.043 -0.9375,2.3281"
         id="path170" />
      <path
         d="m 136.37,185.81 0.31641,-0.80078 1.1055,-0.0391 -0.32422,0.82421 -1.0977,0.0156"
         id="path172" />
      <path
         d="m 147.04,192.68 0.92578,-2.3086 2.875,-0.0352 -0.91797,2.3125 -2.8828,0.0312"
         id="path174" />
      <path
         d="m 139.59,187.47 -1.457,-0.0195 0.38281,-0.9375 c 0.48828,0.0156 0.97265,-0.008 1.4609,0.0234 l -0.38672,0.93359"
         id="path176" />
      <path
         d="m 146.91,191.97 -2.7148,-0.0195 0.78125,-1.9609 2.7226,0.0234 -0.78906,1.957"
         id="path178" />
      <path
         d="m 144.2,190.63 -2.3711,-0.008 -0.0195,-0.008 0.60547,-1.4883 2.3906,0.004 -0.60547,1.5"
         id="path180" />
      <path
         d="m 141.69,189.26 -1.918,-0.0195 0.44141,-1.125 c 0.64843,-0.008 1.3008,-0.004 1.9492,0.008 l -0.47266,1.1367"
         id="path182" />
      <path
         d="m 148.84,195.33 -0.0117,0.0273 -2.875,0.0352 0.94141,-2.3711 2.8906,-0.0312 -0.94532,2.3398"
         id="path184" />
      <path
         d="m 147.76,198 -2.8828,0.0703 -0.0195,-0.008 0.95703,-2.3477 2.8711,-0.0273 -0.92578,2.3125"
         id="path186" />
      <path
         d="m 134.17,193.94 c -0.36328,-0.0117 -0.72656,0.0234 -1.0898,0 l 0.31641,-0.77344 c 0.37109,-0.0312 0.74219,-0.0234 1.1172,-0.0391 l -0.34375,0.8125"
         id="path188" />
      <path
         d="m 146.61,200.84 c -0.96094,-0.0234 -1.918,-0.0312 -2.8828,0.0469 l 1.0039,-2.4922 2.8945,-0.0508 -1.0156,2.4961"
         id="path190" />
      <path
         d="m 136.31,195.62 -1.4688,0.008 0.36328,-0.93359 c 0.4961,0 0.98438,-0.0156 1.4805,-0.004 l -0.375,0.92969"
         id="path192" />
      <path
         d="m 143.65,200.04 -2.7031,-0.0391 0.79297,-1.957 2.7031,0.0273 -0.79297,1.9688"
         id="path194" />
      <path
         d="m 138.57,198.67 0.60546,-1.5078 2.3789,0.0156 -0.60547,1.5117 -2.3789,-0.0195"
         id="path196" />
      <path
         d="m 164.05,188.08 c -1.0039,-1.1445 -2.3984,-1.957 -3.9414,-2.4688 l -2.4141,5.9727 c 1.5391,0.56641 2.8984,1.3438 3.9922,2.3398 z m -3.1328,7.793 c -1.0117,-1.0898 -2.4609,-1.8633 -3.9844,-2.4062 l -2.4531,6.1016 c 1.4961,0.58984 2.8984,1.2891 4.0391,2.2266 z m 6.2031,-8.4883 -7.668,18.977 c -1.9883,-2.7109 -5.4453,-4.4219 -8.918,-5.0703 -1.1953,-0.21875 -2.3945,-0.38281 -3.5898,-0.42969 l 1.0039,-2.4688 c 1.5312,0.043 3.0664,0.22266 4.5977,0.60547 l 2.4766,-6.1367 c -1.5703,-0.3789 -3.1367,-0.42578 -4.6992,-0.33984 l 0.80469,-2.0156 c 1.5469,-0.0312 3.0977,0.0664 4.6484,0.49218 l 2.3906,-5.9102 c -1.5664,-0.30469 -3.1328,-0.41407 -4.6914,-0.35938 l 1.0703,-2.6719 c 3.5547,-0.0156 7.668,0.97656 10.582,3.3359 0.73828,0.58594 1.418,1.2344 1.9922,1.9922"
         fill-rule="evenodd"
         id="path198" />
    </g>
  </g>
</svg>
