<?xml version="1.0" encoding="UTF-8" standalone="no"?>
<svg
   id="Ebene_1"
   viewBox="0 0 304.72475 305.3"
   width="899.74237"
   height="901.21832"
   version="1.1"
   sodipodi:docname="xbox-360.svg"
   inkscape:version="1.3.2 (091e20e, 2023-11-25)"
   xmlns:inkscape="http://www.inkscape.org/namespaces/inkscape"
   xmlns:sodipodi="http://sodipodi.sourceforge.net/DTD/sodipodi-0.dtd"
   xmlns="http://www.w3.org/2000/svg"
   xmlns:svg="http://www.w3.org/2000/svg">
  <defs
     id="defs70" />
  <sodipodi:namedview
     id="namedview70"
     pagecolor="#ffffff"
     bordercolor="#666666"
     borderopacity="1.0"
     inkscape:showpageshadow="2"
     inkscape:pageopacity="0.0"
     inkscape:pagecheckerboard="0"
     inkscape:deskcolor="#d1d1d1"
     showgrid="false"
     inkscape:zoom="0.5012"
     inkscape:cx="242.4182"
     inkscape:cy="586.59218"
     inkscape:window-width="1920"
     inkscape:window-height="970"
     inkscape:window-x="0"
     inkscape:window-y="0"
     inkscape:window-maximized="1"
     inkscape:current-layer="Ebene_1" />
  <style
     id="style1">.st0{fill:url(#SVGID_1_)}.st1{fill:url(#SVGID_2_)}.st2{fill:url(#SVGID_3_)}.st3{fill:url(#SVGID_4_)}.st4{fill:url(#SVGID_5_)}.st5{fill:#9da0a3}.st6{fill:#95c343}</style>
  <radialGradient
     id="SVGID_1_"
     cx="268.89801"
     cy="327.50601"
     r="96.351997"
     gradientTransform="matrix(1.1328,0,0,-1.083,-223.48455,500.022)"
     gradientUnits="userSpaceOnUse">
    <stop
       offset=".011"
       stop-color="#fff"
       id="stop1" />
    <stop
       offset=".32"
       stop-color="#fffffe"
       id="stop2" />
    <stop
       offset=".431"
       stop-color="#fdfdf9"
       id="stop3" />
    <stop
       offset=".51"
       stop-color="#fafbf1"
       id="stop4" />
    <stop
       offset=".574"
       stop-color="#f5f8e5"
       id="stop5" />
    <stop
       offset=".629"
       stop-color="#eff3d4"
       id="stop6" />
    <stop
       offset=".678"
       stop-color="#e8eebe"
       id="stop7" />
    <stop
       offset=".722"
       stop-color="#dfe7a2"
       id="stop8" />
    <stop
       offset=".762"
       stop-color="#d5e080"
       id="stop9" />
    <stop
       offset=".798"
       stop-color="#c9d756"
       id="stop10" />
    <stop
       offset=".832"
       stop-color="#bacf20"
       id="stop11" />
    <stop
       offset=".891"
       stop-color="#97c129"
       id="stop12" />
    <stop
       offset=".962"
       stop-color="#6bb42f"
       id="stop13" />
    <stop
       offset="1"
       stop-color="#58ae31"
       id="stop14" />
  </radialGradient>
  <path
     class="st0"
     d="m 57.895455,32.9 c 25.4,-7.6 62.099995,2.1 95.199995,24.2 l 0.4,153.5 c -12.1,-2.4 -24.8,-7.5 -36.6,-14.2 -12.1,-6.9 -24.099995,-15.9 -36.599995,-26.5 L 112.09545,88.2 C 95.595455,77.5 31.195455,59.3 39.495455,50 c 8.4,-9.2 18.4,-17.1 18.4,-17.1 z"
     id="path14"
     style="fill:url(#SVGID_1_)" />
  <radialGradient
     id="SVGID_2_"
     cx="-909.58899"
     cy="327.50601"
     r="96.351997"
     gradientTransform="matrix(-1.1328,0,0,-1.083,-807.01655,500.022)"
     gradientUnits="userSpaceOnUse">
    <stop
       offset=".011"
       stop-color="#fff"
       id="stop15" />
    <stop
       offset=".32"
       stop-color="#fffffe"
       id="stop16" />
    <stop
       offset=".431"
       stop-color="#fdfdf9"
       id="stop17" />
    <stop
       offset=".51"
       stop-color="#fafbf1"
       id="stop18" />
    <stop
       offset=".574"
       stop-color="#f5f8e5"
       id="stop19" />
    <stop
       offset=".629"
       stop-color="#eff3d4"
       id="stop20" />
    <stop
       offset=".678"
       stop-color="#e8eebe"
       id="stop21" />
    <stop
       offset=".722"
       stop-color="#dfe7a2"
       id="stop22" />
    <stop
       offset=".762"
       stop-color="#d5e080"
       id="stop23" />
    <stop
       offset=".798"
       stop-color="#c9d756"
       id="stop24" />
    <stop
       offset=".832"
       stop-color="#bacf20"
       id="stop25" />
    <stop
       offset=".891"
       stop-color="#97c129"
       id="stop26" />
    <stop
       offset=".962"
       stop-color="#6bb42f"
       id="stop27" />
    <stop
       offset="1"
       stop-color="#58ae31"
       id="stop28" />
  </radialGradient>
  <path
     class="st1"
     d="m 246.59545,32.9 c -25.4,-7.6 -62.1,2.1 -95.2,24.2 l -0.4,153.5 c 12.1,-2.4 24.8,-7.5 36.6,-14.2 12.1,-6.9 24.1,-15.9 36.6,-26.5 l -31.8,-81.7 c 16.5,-10.7 80.9,-28.9 72.6,-38.2 -8.4,-9.2 -18.4,-17.1 -18.4,-17.1 z"
     id="path28"
     style="fill:url(#SVGID_2_)" />
  <radialGradient
     id="SVGID_3_"
     cx="-485.358"
     cy="262.327"
     r="86.042"
     gradientTransform="matrix(-0.9659,-0.7017,-0.8867,1.1157,-90.454545,-433.33)"
     gradientUnits="userSpaceOnUse">
    <stop
       offset=".011"
       stop-color="#fff"
       id="stop29" />
    <stop
       offset=".326"
       stop-color="#fffffe"
       id="stop30" />
    <stop
       offset=".44"
       stop-color="#fdfdf9"
       id="stop31" />
    <stop
       offset=".52"
       stop-color="#fafbf1"
       id="stop32" />
    <stop
       offset=".586"
       stop-color="#f5f8e5"
       id="stop33" />
    <stop
       offset=".642"
       stop-color="#eff3d4"
       id="stop34" />
    <stop
       offset=".692"
       stop-color="#e8eebe"
       id="stop35" />
    <stop
       offset=".737"
       stop-color="#dfe7a2"
       id="stop36" />
    <stop
       offset=".778"
       stop-color="#d5e080"
       id="stop37" />
    <stop
       offset=".815"
       stop-color="#c9d756"
       id="stop38" />
    <stop
       offset=".848"
       stop-color="#bacf20"
       id="stop39" />
    <stop
       offset=".855"
       stop-color="#b4cc22"
       id="stop40" />
    <stop
       offset=".896"
       stop-color="#91bf2a"
       id="stop41" />
    <stop
       offset=".935"
       stop-color="#74b62e"
       id="stop42" />
    <stop
       offset=".971"
       stop-color="#5fb031"
       id="stop43" />
    <stop
       offset="1"
       stop-color="#58ae31"
       id="stop44" />
  </radialGradient>
  <path
     class="st2"
     d="m 57.795455,272.4 86.399995,-98.1 -32.1,-86 c -13.499995,11.2 -26.799995,24.8 -39.199995,40.4 -30.4,38.3 -56.9,92.2 -47.7,108.1 9.2,15.9 32.6,35.6 32.6,35.6 z"
     id="path44"
     style="fill:url(#SVGID_3_)" />
  <radialGradient
     id="SVGID_4_"
     cx="203.369"
     cy="695.37201"
     r="86.041"
     gradientTransform="matrix(0.9659,-0.7017,0.8867,1.1157,-654.20755,-433.33)"
     gradientUnits="userSpaceOnUse">
    <stop
       offset=".011"
       stop-color="#fff"
       id="stop45" />
    <stop
       offset=".326"
       stop-color="#fffffe"
       id="stop46" />
    <stop
       offset=".44"
       stop-color="#fdfdf9"
       id="stop47" />
    <stop
       offset=".52"
       stop-color="#fafbf1"
       id="stop48" />
    <stop
       offset=".586"
       stop-color="#f5f8e5"
       id="stop49" />
    <stop
       offset=".642"
       stop-color="#eff3d4"
       id="stop50" />
    <stop
       offset=".692"
       stop-color="#e8eebe"
       id="stop51" />
    <stop
       offset=".737"
       stop-color="#dfe7a2"
       id="stop52" />
    <stop
       offset=".778"
       stop-color="#d5e080"
       id="stop53" />
    <stop
       offset=".815"
       stop-color="#c9d756"
       id="stop54" />
    <stop
       offset=".848"
       stop-color="#bacf20"
       id="stop55" />
    <stop
       offset=".855"
       stop-color="#b4cc22"
       id="stop56" />
    <stop
       offset=".896"
       stop-color="#91bf2a"
       id="stop57" />
    <stop
       offset=".935"
       stop-color="#74b62e"
       id="stop58" />
    <stop
       offset=".971"
       stop-color="#5fb031"
       id="stop59" />
    <stop
       offset="1"
       stop-color="#58ae31"
       id="stop60" />
  </radialGradient>
  <path
     class="st3"
     d="m 246.79545,272.3 -86.4,-98.1 32.1,-86 c 13.5,11.2 26.8,24.8 39.2,40.4 30.4,38.3 56.9,92.2 47.7,108.1 -9.2,15.9 -32.6,35.6 -32.6,35.6 z"
     id="path60"
     style="fill:url(#SVGID_4_)" />
  <radialGradient
     id="SVGID_5_"
     cx="343.52899"
     cy="359.513"
     r="250.826"
     gradientTransform="matrix(1.0751,0,0,-1.0785,-230.76455,499.367)"
     gradientUnits="userSpaceOnUse">
    <stop
       offset=".028"
       stop-color="#fff"
       id="stop61" />
    <stop
       offset=".105"
       stop-color="#e3e2e3"
       id="stop62" />
    <stop
       offset=".259"
       stop-color="#b3b1b2"
       id="stop63" />
    <stop
       offset=".377"
       stop-color="#969696"
       id="stop64" />
    <stop
       offset=".444"
       stop-color="#8c8c8d"
       id="stop65" />
    <stop
       offset=".518"
       stop-color="#919191"
       id="stop66" />
    <stop
       offset=".606"
       stop-color="#9f9f9f"
       id="stop67" />
    <stop
       offset=".7"
       stop-color="#b8b7b7"
       id="stop68" />
    <stop
       offset=".798"
       stop-color="#dcdcdc"
       id="stop69" />
    <stop
       offset=".809"
       stop-color="#e1e1e1"
       id="stop70" />
  </radialGradient>
  <path
     class="st4"
     d="m 33.195455,248 c -20.8,-26.1 -33.30000045,-59.2 -33.30000045,-95.2 0,-40.3 15.50000045,-76.9 41.00000045,-104.1 0,0 26.6,11.8 71.399995,39.5 C 12.295455,191.8 33.195455,248 33.195455,248 Z M 152.29545,58.7 c 0,-0.1 -0.1,-0.1 0,0 60.9,-44.1 98.8,-22 98.8,-22 -26.6,-22.9 -61.1,-36.7 -98.9,-36.7 -37.8,0 -72.299995,13.8 -98.899995,36.7 0,0 37.9,-22.7 98.899995,21.9 M 42.195455,258 c 27.7,29.1 66.699995,47.3 109.999995,47.3 43.4,0 82.5,-18.2 110.2,-47.5 0,0 -16.1,-66.6 -110.7,-136.6 C 66.895455,183.9 42.195455,258 42.195455,258 Z M 271.39545,248 c 20.8,-26.1 33.3,-59.2 33.3,-95.2 0,-40.3 -15.6,-76.9 -41,-104.1 0,0 -26.6,11.8 -71.4,39.5 100,103.6 79.1,159.8 79.1,159.8 z"
     id="path70"
     style="fill:url(#SVGID_5_)" />
</svg>
