<?xml version="1.0" encoding="UTF-8"?>
<svg version="1.1" viewBox="0 0 240 240" xmlns="http://www.w3.org/2000/svg">
    <g transform="translate(-142.51 -9.4602)" stroke-width=".46815">
        <path d="m318.38 63.882-14.986 23.662 43.806 62.326v-74.89l-28.819-11.099z" color="#000000" fill="#069330" style="-inkscape-stroke:none"/>
        <path d="m226.95 82.877-11.174-22.255-31.32 12.39 32.183 61.844v-47.206z" color="#000000" fill="#fe2015" style="-inkscape-stroke:none"/>
        <g fill="#ffc001">
            <path d="m318.38 56.631 32.148 11.826 31.821-11.827-29.506-11.827-34.463 11.827z" color="#000000" style="-inkscape-stroke:none"/>
            <path d="m300.65 21.922-30.971-12.308-30.969 12.157 30.971 12.308z" color="#000000" style="-inkscape-stroke:none"/>
            <path d="m175.43 40.375-32.766 13.162 36.995 12.858 30.479-12.858z" color="#000000" style="-inkscape-stroke:none"/>
            <path d="m262.74 104.58 34.725-13.448-34.725-14.403-34.725 15.358z" color="#000000" style="-inkscape-stroke:none"/>
        </g>
        <path d="m244.5 76.038 19.291-36.262-29.506-12.471-14.177 26.232 12.991 27.215z" color="#000000" fill="#069330" style="-inkscape-stroke:none"/>
        <path d="m262.74 68.877 34.917 13.531 7.989-13.531v-41.316l-32.329 12.288-10.576 19.304v9.7234z" color="#000000" fill="#011da9" style="-inkscape-stroke:none"/>
        <path d="m346.53 215.52-40.778-53.751v22.406l15.34 20.983 25.438 10.362z" color="#000000" fill="#fe2015" style="-inkscape-stroke:none"/>
        <path d="m257.42 249.31v-136.24l-33.787-13.602v67.877l-49.048-93.951-31.927-12.509v139.25l31.79 13.734v-75.901l49.055 96.825z" color="#000000" fill="#069330" style="-inkscape-stroke:none"/>
        <path d="m200.48 204.94-18.37-34.309v43.239z" color="#000000" fill="#011da9" style="-inkscape-stroke:none"/>
        <path d="m350.85 211.61-51.2-68.088v90.06l-32.486 15.723v-136.24l34.637-13.602 52.511 70.095v-94.581l28.036-10.359v134.25l-31.499 12.738z" color="#000000" fill="#011da9" style="-inkscape-stroke:none"/>
    </g>
</svg>
