<?xml version="1.0" encoding="UTF-8"?>
<svg version="1.1" viewBox="0 0 376 376" xmlns="http://www.w3.org/2000/svg">
    <g transform="matrix(2.4919 0 0 2.4919 -48.606 -87.978)">
        <path d="m111.6 82.6 4.4-5v-33.8l-21 8.1-17.4 31 17.4-6.7z" fill="#0222a9"/>
        <path d="m148.9 129.7v-57l21.3-8.2v89.7l-21.3 9-31.3-40.9v54.1l-22.6 9.5v-92.4l22.6-8.6z" fill="#011da9"/>
        <path d="m61.1 154.3-20-38.8v47.7z" fill="#0222a9"/>
        <g fill="#069330">
            <path d="m62.4 64.5 10 20.4 5.2-2 17.4-31-21-8.2z"/>
            <path d="m111.6 82.6 16-18.1 21.3 8.2v57l-31.3-44.8z"/>
            <path d="m95 185.9v-92.4l-22.6-8.6v46.9l-31.4-59.1-21.3-8.2v89.7l21.3 9v-47.7l31.4 60.9z"/>
        </g>
        <path d="m41.1 72.7 21.3-8.2 10 20.4v46.9z" fill="#fe2015"/>
        <path d="m117.6 144.6 6.4 9 24.9 9.6-31.3-40.9z" fill="#fe2015"/>
        <g fill="#ffc001">
            <path d="m72.5 84.9 22.6-8.6 22.6 8.6-22.6 8.6z"/>
            <path d="m148.9 56.3 21.3 8.2-21.3 8.2-21.3-8.2z"/>
            <path d="m41.1 56.3 21.3 8.2-21.3 8.2-21.3-8.2z"/>
            <path d="m95 35.6-21 8.1 21 8.2 21-8.1z"/>
        </g>
    </g>
</svg>
