<?xml version="1.0" encoding="UTF-8" standalone="no"?>
<svg
   viewBox="0 0 42 42"
   version="1.1"
   id="svg1025"
   sodipodi:docname="purplefrog-bg.svg"
   inkscape:version="1.1 (c4e8f9e, 2021-05-24)"
   width="42"
   height="42"
   inkscape:export-filename="/Users/alex/bitmap.png"
   inkscape:export-xdpi="1170.2858"
   inkscape:export-ydpi="1170.2858"
   xmlns:inkscape="http://www.inkscape.org/namespaces/inkscape"
   xmlns:sodipodi="http://sodipodi.sourceforge.net/DTD/sodipodi-0.dtd"
   xmlns:xlink="http://www.w3.org/1999/xlink"
   xmlns="http://www.w3.org/2000/svg"
   xmlns:svg="http://www.w3.org/2000/svg"
   xmlns:rdf="http://www.w3.org/1999/02/22-rdf-syntax-ns#"
   xmlns:cc="http://creativecommons.org/ns#"
   xmlns:dc="http://purl.org/dc/elements/1.1/">
  <defs
     id="defs1029">
    <linearGradient
       inkscape:collect="always"
       id="linearGradient1111">
      <stop
         style="stop-color:#333b40;stop-opacity:1"
         offset="0"
         id="stop1107" />
      <stop
         style="stop-color:#282e31;stop-opacity:1"
         offset="1"
         id="stop1109" />
    </linearGradient>
    <filter
       style="color-interpolation-filters:sRGB;"
       inkscape:label="Drop Shadow"
       id="filter1377"
       x="-0.13333333"
       y="-0.15"
       width="1.2666667"
       height="1.3625">
      <feFlood
         flood-opacity="0.2"
         flood-color="rgb(0,0,0)"
         result="flood"
         id="feFlood1367" />
      <feComposite
         in="flood"
         in2="SourceGraphic"
         operator="in"
         result="composite1"
         id="feComposite1369" />
      <feGaussianBlur
         in="composite1"
         stdDeviation="2"
         result="blur"
         id="feGaussianBlur1371" />
      <feOffset
         dx="0"
         dy="2"
         result="offset"
         id="feOffset1373" />
      <feComposite
         in="SourceGraphic"
         in2="offset"
         operator="over"
         result="composite2"
         id="feComposite1375" />
    </filter>
    <radialGradient
       inkscape:collect="always"
       xlink:href="#linearGradient1111"
       id="radialGradient1547"
       cx="22.276571"
       cy="41.439331"
       fx="22.276571"
       fy="41.439331"
       r="20.999056"
       gradientTransform="matrix(1.7367955,-0.04400681,0.04964455,1.9592976,-18.470515,-38.771409)"
       gradientUnits="userSpaceOnUse" />
  </defs>
  <sodipodi:namedview
     id="namedview1027"
     pagecolor="#505050"
     bordercolor="#eeeeee"
     borderopacity="1"
     inkscape:pageshadow="0"
     inkscape:pageopacity="0"
     inkscape:pagecheckerboard="0"
     showgrid="false"
     inkscape:zoom="7.044923"
     inkscape:cx="22.853337"
     inkscape:cy="20.724144"
     inkscape:window-width="1312"
     inkscape:window-height="918"
     inkscape:window-x="0"
     inkscape:window-y="25"
     inkscape:window-maximized="0"
     inkscape:current-layer="svg1025"
     width="42px" />
  <title
     id="title1007">decomp.me</title>
  <rect
     style="fill:url(#radialGradient1547);fill-opacity:1;stroke-width:1.2717"
     id="rect1392"
     width="41.998112"
     height="42"
     x="0"
     y="0" />
  <g
     id="g1513"
     transform="matrix(0.69396031,0,0,0.70869376,8.5087144,8.2435123)"
     style="filter:url(#filter1377)">
    <path
       fill="var(--frog-secondary)"
       d="M 36,22 C 36,29.456 27.941,34 18,34 8.059,34 0,29.456 0,22 0,14.544 8.059,7 18,7 c 9.941,0 18,7.544 18,15 z"
       id="path1009"
       style="fill:#cc87f4;fill-opacity:1" />
    <path
       fill="var(--frog-primary)"
       d="M 31.755,12.676 C 33.123,11.576 34,9.891 34,8 34,4.687 31.313,2 28,2 25.139,2 22.75,4.004 22.149,6.685 20.861,6.202 19.466,5.927 18,5.927 16.535,5.927 15.139,6.202 13.851,6.685 13.25,4.004 10.861,2 8,2 4.687,2 2,4.687 2,8 2,9.891 2.877,11.576 4.245,12.676 1.6,15.356 0,18.685 0,22 c 0,7.456 8.059,1 18,1 9.941,0 18,6.456 18,-1 0,-3.315 -1.6,-6.644 -4.245,-9.324 z"
       id="path1011"
       style="fill:#951fd9;fill-opacity:1" />
    <circle
       fill="#ffffff"
       cx="7.5"
       cy="7.5"
       r="3.5"
       class="eyeL"
       id="circle1013" />
    <circle
       fill="var(--frog-pupil)"
       cx="7.5"
       cy="7.5"
       r="1.5"
       class="pupilL"
       id="circle1015"
       style="fill:#292f33;fill-opacity:1" />
    <circle
       fill="#ffffff"
       cx="28.5"
       cy="7.5"
       r="3.5"
       class="eyeR"
       id="circle1017" />
    <circle
       fill="var(--frog-pupil)"
       cx="28.5"
       cy="7.5"
       r="1.5"
       class="pupilR"
       id="circle1019"
       style="fill:#292f33;fill-opacity:1" />
    <circle
       fill="var(--frog-nose)"
       cx="14"
       cy="20"
       r="1"
       id="circle1021"
       style="fill:#561e77;fill-opacity:1" />
    <circle
       fill="var(--frog-nose)"
       cx="22"
       cy="20"
       r="1"
       id="circle1023"
       style="fill:#561e77;fill-opacity:1" />
  </g>
  <metadata
     id="metadata1355">
    <rdf:RDF>
      <cc:Work
         rdf:about="">
        <dc:title>decomp.me</dc:title>
      </cc:Work>
    </rdf:RDF>
  </metadata>
</svg>
