<?xml version="1.0" encoding="UTF-8" standalone="no"?>
<svg
   viewBox="0 0 36 36"
   version="1.1"
   id="svg1025"
   sodipodi:docname="purplefrog.svg"
   inkscape:version="1.1 (c4e8f9e, 2021-05-24)"
   xmlns:inkscape="http://www.inkscape.org/namespaces/inkscape"
   xmlns:sodipodi="http://sodipodi.sourceforge.net/DTD/sodipodi-0.dtd"
   xmlns="http://www.w3.org/2000/svg"
   xmlns:svg="http://www.w3.org/2000/svg"
   xmlns:rdf="http://www.w3.org/1999/02/22-rdf-syntax-ns#"
   xmlns:cc="http://creativecommons.org/ns#"
   xmlns:dc="http://purl.org/dc/elements/1.1/">
  <defs
     id="defs1029" />
  <sodipodi:namedview
     id="namedview1027"
     pagecolor="#505050"
     bordercolor="#eeeeee"
     borderopacity="1"
     inkscape:pageshadow="0"
     inkscape:pageopacity="0"
     inkscape:pagecheckerboard="0"
     showgrid="false"
     inkscape:zoom="19.222222"
     inkscape:cx="17.973988"
     inkscape:cy="18"
     inkscape:window-width="1312"
     inkscape:window-height="918"
     inkscape:window-x="0"
     inkscape:window-y="25"
     inkscape:window-maximized="0"
     inkscape:current-layer="svg1025" />
  <title
     id="title1007">decomp.me</title>
  <path
     fill="var(--frog-secondary)"
     d="M36 22c0 7.456-8.059 12-18 12S0 29.456 0 22 8.059 7 18 7s18 7.544 18 15z"
     id="path1009"
     style="fill:#cc87f4;fill-opacity:1" />
  <path
     fill="var(--frog-primary)"
     d="M31.755 12.676C33.123 11.576 34 9.891 34 8c0-3.313-2.687-6-6-6-2.861 0-5.25 2.004-5.851 4.685-1.288-.483-2.683-.758-4.149-.758-1.465 0-2.861.275-4.149.758C13.25 4.004 10.861 2 8 2 4.687 2 2 4.687 2 8c0 1.891.877 3.576 2.245 4.676C1.6 15.356 0 18.685 0 22c0 7.456 8.059 1 18 1s18 6.456 18-1c0-3.315-1.6-6.644-4.245-9.324z"
     id="path1011"
     style="fill:#951fd9;fill-opacity:1" />
  <circle
     fill="#FFF"
     cx="7.5"
     cy="7.5"
     r="3.5"
     class="eyeL"
     id="circle1013" />
  <circle
     fill="var(--frog-pupil)"
     cx="7.5"
     cy="7.5"
     r="1.5"
     class="pupilL"
     id="circle1015"
     style="fill:#292f33;fill-opacity:1" />
  <circle
     fill="#FFF"
     cx="28.5"
     cy="7.5"
     r="3.5"
     class="eyeR"
     id="circle1017" />
  <circle
     fill="var(--frog-pupil)"
     cx="28.5"
     cy="7.5"
     r="1.5"
     class="pupilR"
     id="circle1019"
     style="fill:#292f33;fill-opacity:1" />
  <circle
     fill="var(--frog-nose)"
     cx="14"
     cy="20"
     r="1"
     id="circle1021"
     style="fill:#561e77;fill-opacity:1" />
  <circle
     fill="var(--frog-nose)"
     cx="22"
     cy="20"
     r="1"
     id="circle1023"
     style="fill:#561e77;fill-opacity:1" />
  <metadata
     id="metadata1355">
    <rdf:RDF>
      <cc:Work
         rdf:about="">
        <dc:title>decomp.me</dc:title>
      </cc:Work>
    </rdf:RDF>
  </metadata>
</svg>
